<svg xmlns="http://www.w3.org/2000/svg" viewBox="0 0 371.75 413.05"><g id="Layer_2" data-name="Layer 2"><g id="Layer_1-2" data-name="Layer 1"><path d="M55.06,220.47H68.83V375.78c0,15.48,8.07,23.5,23.65,23.5H307.14c15,0,23.27-8.2,23.27-23q0-137.65,0-275.31V96.39h-4.2c-9.9,0-19.79.06-29.68,0-12.31-.1-21.09-8.9-21.17-21.22-.08-11.14,0-22.29,0-33.83h-5.47c-58.79,0-117.58.12-176.37-.1-11.66,0-20,4-24.19,15.53L56.56,53.41C59,39.51,73,28.12,87.93,27.62c5.3-.18,10.61-.07,15.91-.07q87.54,0,175.08-.08a13.67,13.67,0,0,1,10.61,4.42q25.25,25.55,50.79,50.8a12.38,12.38,0,0,1,3.92,9.51q-.12,142.17-.07,284.34c0,21.84-14.6,36.49-36.34,36.5q-108.19,0-216.38,0c-21.77,0-36.38-14.66-36.38-36.46q0-75.7,0-151.42Zm234.09-169c0,8.71-.15,16.69.07,24.66.1,3.94,3,6.32,7.21,6.42,4.72.13,9.46,0,14.19,0h9.6Z" style="fill:#294781"/><path d="M275.34,241.06h13.57v13.36H110.4V241.06h13.5v-4.41c0-9.75-.06-19.49,0-29.24,0-5.11,2.62-7.68,7.7-7.74,8.46-.08,16.92-.06,25.37,0,5.64,0,8.16,2.53,8.19,8.13.06,10.87,0,21.74,0,32.89H179V236q0-27.52,0-55c0-6.45,2.34-8.76,8.83-8.78q12,0,24.08,0c5.89,0,8.36,2.48,8.37,8.39,0,19.92,0,39.84,0,60.1H234v-4.47q0-41.08,0-82.15c0-7.29,2.15-9.4,9.51-9.41,7.74,0,15.48,0,23.22,0,6.15,0,8.56,2.43,8.56,8.63q0,41.28,0,82.57ZM248.1,158.54V240.6h13.26V158.54ZM193,186.08V240.6h13.25V186.08ZM138,213.61v27h13.24v-27Z" style="fill:#294781"/><path d="M363.07,373.81l-10.19-9.07c4.44-5.37,5.13-11.44,5.12-17.9q-.11-155.28-.06-310.55c0-11.76-6.34-20.09-16.92-22.13a34.34,34.34,0,0,0-6.42-.36q-106.68,0-213.35-.06c-6.44,0-12.57.53-17.82,5.19L94.35,8.73c5.91-5.47,12.82-8,20.52-8.64C116.58-.06,118.31,0,120,0H334.24c23.24,0,37.47,14.25,37.47,37.51q0,155.72,0,311.41C371.75,358.16,369.43,366.39,363.07,373.81Z" style="fill:#294781"/><path d="M69,68.87c37.69-.08,68.53,30.81,68.67,68.76.13,37.71-30.89,68.89-68.57,68.9-38,0-69-30.7-69.09-68.36A68.87,68.87,0,0,1,69,68.87Zm54.89,68.86a55.09,55.09,0,0,0-55.33-55.1c-30.19,0-54.79,24.81-54.79,55.22,0,30,24.74,54.82,54.7,54.91A55.13,55.13,0,0,0,123.88,137.73Z" style="fill:#294781"/><path d="M110.13,323.61c0-10.9,0-21.8,0-32.69,0-6.23,2.39-8.65,8.53-8.66q32.7,0,65.39,0c6.22,0,8.66,2.4,8.66,8.54q0,32.68,0,65.39c0,6.2-2.41,8.65-8.54,8.66q-32.7,0-65.4,0c-6.21,0-8.63-2.4-8.65-8.54C110.1,345.41,110.13,334.51,110.13,323.61Zm68.65-27.28H124.24v54.53h54.54Z" style="fill:#294781"/><path d="M158.51,109.85V96.62h82.06v13.23Z" style="fill:#294781"/><path d="M302.62,295.82h-82V282.53h82Z" style="fill:#294781"/><path d="M220.48,323.27V310h82.06v13.27Z" style="fill:#294781"/><path d="M220.48,350.8V337.53h82.06V350.8Z" style="fill:#294781"/><path d="M186.06,82.34V69.06h54.53V82.34Z" style="fill:#294781"/><path d="M158.39,82.36V69.2h13.39V82.36Z" style="fill:#294781"/><path d="M75.73,172.28v6.45H62.08v-6.38c-7-.61-13.11-3.1-16.84-9-2.12-3.35-3.14-7.39-4.89-11.7H54.79c1.05,5.67,5.07,7.1,10.41,6.74,3.42-.24,6.88.06,10.32-.09,4.12-.17,6.93-2.94,7-6.66.11-3.9-2.77-6.87-7.1-7-4.15-.15-8.31,0-12.47-.05-11.75-.08-20.83-8.06-21.64-19-.84-11.28,6.88-20.44,18.76-22.24.42-.07.85-.12,1.66-.23l.31-6.45h13.5V103c7,.69,13.13,3.08,16.84,9,2.1,3.36,3.13,7.39,4.87,11.7H82.86c-1.06-5.66-5.07-7.1-10.41-6.73-3.42.24-6.88-.06-10.32.08-4.14.17-6.93,2.91-7,6.65-.11,3.9,2.78,6.88,7.1,7,4.15.15,8.31,0,12.47.05,11.77.08,20.81,8,21.64,19S89.57,170.09,78,172C77.41,172.1,76.84,172.15,75.73,172.28Z" style="fill:#294781"/></g></g></svg>