<svg xmlns="http://www.w3.org/2000/svg" viewBox="0 0 88.11 87"><g id="Layer_2" data-name="Layer 2"><g id="Layer_1-2" data-name="Layer 1"><path d="M6.56,61.43C6,62,4.87,63.1,3.77,62.82a2.43,2.43,0,0,1-1.4-1.39c-.83-1.72-8.22-26.24,8.22-45.36,2.59-3,14.48-16,33.66-16.07C61.92,0,76.51,10.9,83.34,23.73c9.11,17.09,2.59,34,1.4,36.3-.36.69-1.11,2.31-2.41,2.48-2.53.34-5.15-5-6-6.67-3.28-6.48-11-18.81-25.87-40.3-1-1.47-3.2-4.23-6.24-4.37s-5.49,2.43-7,4.19C32.66,20.79,21.16,37.9,6.56,61.43Z" style="fill:#fff"/><path d="M14.71,75.83s26.1-39.09,59.12,0A45.47,45.47,0,0,1,44,87,45.42,45.42,0,0,1,14.71,75.83Z" style="fill:#fff"/></g></g></svg>