<svg xmlns="http://www.w3.org/2000/svg" viewBox="0 0 304.11 288.06"><g id="Layer_2" data-name="Layer 2"><g id="Layer_1-2" data-name="Layer 1"><path d="M0,143.74Q0,96.69,0,49.61C0,20.76,20.8,0,49.7,0q78.6,0,157.18,0c8.24,0,14.54,4.41,16.56,11.48a15.9,15.9,0,0,1-12.7,20.19,35,35,0,0,1-6,.38q-77.46,0-154.92,0C44.44,32,39.71,33.29,36,37.44a16,16,0,0,0-4,11q0,95.64,0,191.27c0,9.83,6.66,16.23,16.72,16.24q95.1.06,190.18,0c10.6,0,17-6.47,17-17.14.05-30.75,0-61.5.06-92.26a26.18,26.18,0,0,1,1-7.75c2.36-7.44,9.76-11.7,17.74-10.54a15.86,15.86,0,0,1,13.26,15.46c.14,10.38,0,20.75,0,31.13q0,31.88,0,63.76c0,28.53-20.92,49.41-49.52,49.42q-94.52,0-189,0C20.92,288,0,267.18,0,238.63Q0,191.19,0,143.74Z" style="fill:#004389"/><path d="M144.76,153.9a28.26,28.26,0,0,1,2.69-3.83Q211.44,86,275.48,22c4.34-4.34,9.2-6.8,15.45-5.62a15.06,15.06,0,0,1,12.2,10.4,15.35,15.35,0,0,1-3,15.77c-.89,1-1.89,2-2.86,3L157.51,185.2c-9.2,9.2-17.69,9.2-26.86,0-15.2-15.2-30.45-30.36-45.59-45.63-7.54-7.61-6.39-19.28,2.26-25,6.55-4.3,14.53-3.37,20.5,2.55,11.09,11,22.11,22.08,33.17,33.12C141.94,151.28,142.94,152.18,144.76,153.9Z" style="fill:#004389"/></g></g></svg>