<svg xmlns="http://www.w3.org/2000/svg" xmlns:xlink="http://www.w3.org/1999/xlink" version="1.1" x="0px" y="0px" viewBox="0 0 66 82.5" enable-background="new 0 0 66 66" xml:space="preserve"><g><g><path d="M18.4,50.4c0.2,0,0.4,0,0.5,0.1c0,0,0,0,0,0c0.6,0.2,1.2,0.7,1.3,1.3c1.9-0.2,2.9-0.5,4.7,0h2.4c-1.7-1.9-2.7-4.8-2.7-8    c0-3.2,1-6.1,2.7-8H16.5c-0.2,1.5-1.4,2.7-2.9,2.9v10.2c1,0.1,1.8,0.7,2.4,1.5H18.4z"/><path d="M5.2,52.3v2.1c0,0.5,0.4,0.9,0.9,0.9c6.5,0,6.9,0,10.6,0c0.6-1.1,1.6-2.1,2.7-2.7c0-0.1,0-0.1,0-0.2    c0-0.5-0.4-0.9-0.9-0.9c-4.5,0-9.5,0-12.3,0C5.5,51.5,5.2,51.9,5.2,52.3z"/><path d="M16,61.1c-3.6,0-6.3,0-10,0c-0.5,0-0.9,0.4-0.9,0.9v2.1c0,0.5,0.4,0.9,0.9,0.9h13C17.6,64.1,16.6,62.7,16,61.1z"/><path d="M6.9,38.8l2.7,6V34.4l-1.2,0.6C8.8,36.4,8.2,38,6.9,38.8z"/><path d="M6,56.3c-0.5,0-0.9,0.4-0.9,0.9v2.1c0,0.5,0.4,0.9,0.9,0.9c0.7,0,10,0,9.7,0c-0.1-0.4-0.1-0.8-0.1-1.3    c0-0.9,0.2-1.7,0.5-2.5C13.5,56.3,8.6,56.3,6,56.3z"/><path d="M22.8,11.7v12.3l8.8-4v-8.4c0-0.3,0.2-0.5,0.5-0.5h5.3L27.2,1L17,11.2h5.3C22.5,11.2,22.8,11.5,22.8,11.7z"/><path d="M9.6,50.4v-3.1l-3.9-8.6c-0.1-0.3,0-0.6,0.3-0.7c1.2-0.6,1.8-2,1.2-3.2c-0.1-0.1-0.1-0.3,0-0.4s0.1-0.2,0.3-0.3l2.1-1    c0.1-0.8,0.8-1.3,1.6-1.3h1.4l6.3-2.8c0.2-0.1,0.4,0,0.6,0.1c0.2,0.2,0.2,0.4,0.1,0.6c-0.3,0.6-0.5,1.3-0.6,2.1h10.9    c-1.4-2.2-3.4-3.8-5.3-4.3c-0.2-0.1-0.4-0.2-0.4-0.5c0-0.2,0.1-0.4,0.3-0.5l11.4-5.1c0.3-0.1,0.6,0,0.7,0.3c0.5,1.2,2,1.8,3.2,1.2    c0.1-0.1,0.3-0.1,0.4,0c0.1,0.1,0.2,0.1,0.3,0.3l3.9,8.7h2.1L40.1,18c-0.1-0.3-0.4-0.4-0.7-0.3C26.7,23.5,16,28.3,2.3,34.4    C2,34.5,1.9,34.9,2,35.1l7.1,15.3H9.6z"/><path d="M18.1,30.5l-2.9,1.3h2.7C17.9,31.4,18,31,18.1,30.5z"/><path d="M35.8,22.6L26,27c1.9,0.9,3.7,2.6,5,4.9h12.1l-3.5-7.8C38.2,24.5,36.6,23.9,35.8,22.6z"/><rect x="51.4" y="44.5" width="3.5" height="10.3"/><path d="M49,50.2v4.6h1.4v-5C50.3,49.9,50.1,50,50,50C49.6,50,49.3,50.1,49,50.2z"/><path d="M49,49.1c0.2-0.1,0.3-0.1,0.5-0.1V38.8c-1.5-0.2-2.7-1.4-2.9-2.9H35.9c1.7,1.9,2.7,4.8,2.7,8c0,3.2-1,6.1-2.7,8h7.5v-3.4    c0-0.2,0.1-0.4,0.3-0.5c0.1,0,0.1,0,0.2,0h4.5c0.3,0,0.5,0.2,0.5,0.5V49.1z"/><path d="M52.4,41.9v-0.2v-8.2c0-0.3-0.2-0.5-0.5-0.5c-9.5,0-32.8,0-40.7,0c-0.3,0-0.5,0.2-0.5,0.5c0,5.6,0,10.7,0,17h3.8    c-0.4-0.3-0.9-0.5-1.4-0.5c-0.3,0-0.5-0.2-0.5-0.5V38.3c0-0.3,0.2-0.5,0.5-0.5c1.3,0,2.4-1.1,2.4-2.4c0-0.3,0.2-0.5,0.5-0.5h12.5    c0.2,0,0.4,0.1,0.5,0.4c0.1,0.2,0,0.4-0.2,0.6c-2,1.6-3.3,4.7-3.3,8.1c0,3.4,1.2,6.5,3.2,8.1c0.2,0.1,0.3,0.3,0.3,0.5    c0,0.3-0.2,0.5-0.5,0.5c0,0,0,0,0,0H27c0.7,0.5,1.3,1.2,1.8,1.9h14.5v-1.9h-8.9c-0.2,0-0.4-0.1-0.5-0.4c-0.1-0.2,0-0.4,0.2-0.6    c2-1.6,3.3-4.7,3.3-8.1c0-3.4-1.2-6.5-3.3-8.1c-0.2-0.1-0.2-0.4-0.2-0.6c0.1-0.2,0.3-0.4,0.5-0.4h12.5c0.3,0,0.5,0.2,0.5,0.5    c0,1.3,1.1,2.4,2.4,2.4c0.3,0,0.5,0.2,0.5,0.5v5.3c0.1-0.1,0.2-0.1,0.3-0.1h1.6V41.9z M34.6,41.8h-1.9c0-0.7-0.7-1.3-1.4-1.1    c-0.4,0.1-0.7,0.4-0.8,0.8c-0.2,0.8,0.4,1.5,1.2,1.4c0.6-0.1,1.2,0,1.6,0.4c2.2,2,1.3,4.7-0.8,5.4v0.6c0,0.5-0.4,0.9-0.9,0.9h0    c-0.5,0-0.9-0.4-0.9-0.9v-0.6c-1.2-0.4-2-1.5-2-2.8h1.9c0,0.7,0.7,1.3,1.4,1.1c0.4-0.1,0.7-0.4,0.8-0.8c0.2-0.8-0.4-1.5-1.2-1.4    c-0.6,0.1-1.2,0-1.6-0.4c-2.2-2-1.3-4.7,0.8-5.4v-0.6c0-0.5,0.4-0.9,0.9-0.9h0c0.5,0,0.9,0.4,0.9,0.9V39    C33.7,39.4,34.6,40.5,34.6,41.8z"/><path d="M44.5,54.8h3.5V49h-3.5C44.5,49.1,44.5,55.2,44.5,54.8z"/><path d="M16.7,58.8c0,3.4,2.8,6.2,6.2,6.2s6.2-2.8,6.2-6.2C29,51.1,16.7,50.5,16.7,58.8z M24.3,57.9h-0.9v-0.1    c0-0.3-0.3-0.6-0.7-0.5c-0.2,0-0.3,0.2-0.4,0.4c-0.1,0.4,0.2,0.7,0.5,0.7c0.3,0,0.6,0.1,0.9,0.3c0.9,0.9,0.5,2.1-0.5,2.5v0.1    c0,0.2-0.2,0.4-0.4,0.4s-0.4-0.2-0.4-0.4v-0.1c-0.6-0.2-1-0.7-1-1.3v-0.1h0.9v0.1c0,0.3,0.3,0.6,0.7,0.5c0.2,0,0.3-0.2,0.4-0.4    c0.1-0.4-0.2-0.7-0.5-0.7c-0.3,0-0.6-0.1-0.9-0.3c-0.9-0.9-0.5-2.1,0.5-2.5v-0.1c0-0.2,0.2-0.4,0.4-0.4s0.4,0.2,0.4,0.4v0.1    C23.9,56.7,24.3,57.2,24.3,57.9L24.3,57.9z"/><path d="M60,35.1l-4,4h1.7c0.3,0,0.5,0.2,0.5,0.5v15.2h3.5V39.6c0-0.3,0.2-0.5,0.5-0.5H64L60,35.1z"/></g></g><text x="0" y="81" fill="#000000" font-size="5px" font-weight="bold" font-family="'Helvetica Neue', Helvetica, Arial-Unicode, Arial, Sans-serif">Created by Vectors Point</text><text x="0" y="86" fill="#000000" font-size="5px" font-weight="bold" font-family="'Helvetica Neue', Helvetica, Arial-Unicode, Arial, Sans-serif">from the Noun Project</text></svg>