<svg xmlns="http://www.w3.org/2000/svg" xmlns:xlink="http://www.w3.org/1999/xlink" version="1.1" x="0px" y="0px" viewBox="0 0 464 580" style="enable-background:new 0 0 464 464;" xml:space="preserve"><g><path d="M64,458.962c9.877,1.72,20.649,3.018,32,3.866v-31.962c-11.261-0.811-22.019-2.047-32-3.683V458.962z"/><path d="M112,431.715v31.994c5.258,0.189,10.597,0.291,16,0.291s10.742-0.103,16-0.291v-31.994c-5.268,0.183-10.605,0.285-16,0.285   S117.268,431.898,112,431.715z"/><path d="M212.999,377.714C191.965,391.784,166.7,400,139.55,400h-23.1c-27.15,0-52.415-8.216-73.449-22.286   C20.702,383.985,16,390.524,16,392c0,1.501,4.957,8.43,29.208,14.897C67.221,412.768,96.623,416,128,416s60.779-3.232,82.792-9.103   C235.043,400.43,240,393.501,240,392C240,390.524,235.298,383.985,212.999,377.714z"/><path d="M368.01,400L368,384h-64v16h64C368.007,400,368.01,400,368.01,400z"/><path d="M208,424.056v31.55c0.937-0.234,1.88-0.466,2.792-0.709C235.043,448.431,240,441.501,240,440v-27.109   c-6.438,3.564-14.805,6.724-25.086,9.466C212.684,422.952,210.364,423.513,208,424.056z"/><path d="M16,412.891V440c0,1.501,4.957,8.431,29.208,14.897c0.912,0.243,1.855,0.475,2.792,0.709v-31.55   c-2.364-0.543-4.684-1.104-6.914-1.699C30.805,419.616,22.438,416.455,16,412.891z"/><path d="M280,32h112c4.411,0,8-3.589,8-8V0H272v24C272,28.411,275.589,32,280,32z M376,8c4.418,0,8,3.582,8,8s-3.582,8-8,8   s-8-3.582-8-8S371.582,8,376,8z M328,8c4.418,0,8,3.582,8,8s-3.582,8-8,8s-8-3.582-8-8S323.582,8,328,8z M296,8   c4.418,0,8,3.582,8,8s-3.582,8-8,8s-8-3.582-8-8S291.582,8,296,8z"/><path d="M91.845,80h72.31l25.879-32.349c1.268-1.584,1.966-3.575,1.966-5.604v-1.076c0-4.946-4.024-8.971-8.971-8.971   c-2.396,0-4.648,0.933-6.343,2.627l-21.021,21.021l-5.605-22.425C147.524,23.083,138.453,16,128,16s-19.524,7.083-22.061,17.224   l-5.604,22.424L79.313,34.627C77.619,32.933,75.367,32,72.971,32C68.024,32,64,36.024,64,40.971v1.076   c0,2.029,0.698,4.02,1.966,5.604L91.845,80z"/><path d="M116.45,384h23.1C203.761,384,256,331.76,256,267.549c0-31.106-12.113-60.349-34.107-82.343L164.686,128H91.314   l-57.206,57.206C12.113,207.2,0,236.443,0,267.549C0,331.76,52.239,384,116.45,384z M209.695,220.473l13.266-8.946   c11.146,16.527,17.039,35.9,17.039,56.022c0,24.976-9.261,48.932-26.076,67.457l-11.848-10.754   C216.214,308.678,224,288.541,224,267.549C224,250.626,219.054,234.348,209.695,220.473z M187.45,337.065l9.1,13.16   c-5.078,3.512-10.503,6.566-16.122,9.079l-6.531-14.606C178.619,342.585,183.18,340.018,187.45,337.065z M136,264h-16   c-17.645,0-32-14.355-32-32s14.355-32,32-32v-16h16v16c17.645,0,32,14.355,32,32h-16c0-8.822-7.178-16-16-16h-16   c-8.822,0-16,7.178-16,16s7.178,16,16,16h16c17.645,0,32,14.355,32,32s-14.355,32-32,32v16h-16v-16c-17.645,0-32-14.355-32-32h16   c0,8.822,7.178,16,16,16h16c8.822,0,16-7.178,16-16S144.822,264,136,264z"/><rect x="96" y="96" width="64" height="16"/><path d="M160,462.827c11.351-0.848,22.123-2.146,32-3.866v-31.78c-9.981,1.636-20.739,2.872-32,3.683V462.827z"/><polygon points="352,224 352,304 384,304 384,208 352,208  "/><polygon points="432,176 400,176 400,192 400,304 432,304  "/><rect x="304" y="240" width="32" height="64"/><path d="M440,0h-24v24c0,13.234-10.767,24-24,24H280c-13.233,0-24-10.766-24-24V0h-24c-13.233,0-24,10.767-24,24v16.971v1.076   v106.639l25.206,25.206c12.452,12.451,22.116,26.946,28.686,42.727L407.197,112H376V96h80.803L267.316,232.431   c3.087,11.301,4.684,23.087,4.684,35.119c0,25.032-6.982,48.462-19.097,68.451H464V24C464,10.767,453.233,0,440,0z M224,96h80v16   h-80V96z M336,144H224v-16h112V144z M336,112h-16V96h16V112z M336,80H224V64h112V80z M448,320H288v-96h48v-32h48v-32h64V320z"/><path d="M228.249,365.827C246.677,372.651,256,381.425,256,392v40h184c13.233,0,24-10.767,24-24v-56H241.507   C237.424,356.921,232.991,361.543,228.249,365.827z M288,384c0-8.822,7.178-16,16-16h64c8.822,0,16,7.178,16,16v16   c0,8.822-7.178,16-16,16h-64c-8.822,0-16-7.178-16-16V384z"/></g><text x="0" y="479" fill="#000000" font-size="5px" font-weight="bold" font-family="'Helvetica Neue', Helvetica, Arial-Unicode, Arial, Sans-serif">Created by Eucalyp</text><text x="0" y="484" fill="#000000" font-size="5px" font-weight="bold" font-family="'Helvetica Neue', Helvetica, Arial-Unicode, Arial, Sans-serif">from the Noun Project</text></svg>