<svg xmlns="http://www.w3.org/2000/svg" viewBox="0 0 60 75" x="0px" y="0px"><title>047 - Flexible Payments</title><path d="M51,10a2.006,2.006,0,0,0-2-2H47v4a1,1,0,0,1-2,0V8H39v4a1,1,0,0,1-2,0V8H31v4a1,1,0,0,1-2,0V8H23v4a1,1,0,0,1-2,0V8H15v4a1,1,0,0,1-2,0V8H11a2.006,2.006,0,0,0-2,2v5H51Z"/><path d="M30,46a8,8,0,1,0-8-8A8.011,8.011,0,0,0,30,46ZM29,33.18V33a1,1,0,0,1,2,0v.2a2.972,2.972,0,0,1,1.6,1.3,1,1,0,1,1-1.73,1A1,1,0,1,0,30,37a3,3,0,0,1,1,5.82V43a1,1,0,0,1-2,0v-.2a2.972,2.972,0,0,1-1.6-1.3,1,1,0,1,1,1.73-1A1,1,0,1,0,30,39a3,3,0,0,1-1-5.82Z"/><path d="M45.36,42.5a16,16,0,0,1-30.78-.23,1,1,0,1,1,1.92-.54,14.008,14.008,0,0,0,26.94.21A6.964,6.964,0,0,1,50.12,37H51V17H9V37h.88a4.951,4.951,0,0,0,4.76-3.5,16,16,0,0,1,30.78.23,1,1,0,1,1-1.92.54,14.008,14.008,0,0,0-26.94-.21A6.964,6.964,0,0,1,9.88,39H9V57a2.006,2.006,0,0,0,2,2H49a2.006,2.006,0,0,0,2-2V39h-.88A4.951,4.951,0,0,0,45.36,42.5ZM30,28A10,10,0,1,1,20,38,10.016,10.016,0,0,1,30,28Z"/><path d="M31,2a1,1,0,0,0-2,0V8h2Z"/><path d="M23,2a1,1,0,0,0-2,0V8h2Z"/><path d="M15,2a1,1,0,0,0-2,0V8h2Z"/><path d="M47,2a1,1,0,0,0-2,0V8h2Z"/><path d="M39,2a1,1,0,0,0-2,0V8h2Z"/><path d="M3.414,37l1.293-1.293a1,1,0,0,0-1.414-1.414L.308,37.278C.3,37.283.3,37.285.29,37.29a.988.988,0,0,0-.21.32l0,.006c-.005.013-.006.026-.011.039a.265.265,0,0,0-.027.095.834.834,0,0,0-.029.194,1.046,1.046,0,0,0,0,.112.834.834,0,0,0,.029.194.265.265,0,0,0,.027.095c0,.013.006.026.011.039l0,.006a.988.988,0,0,0,.21.32c.005.005.012.007.017.012l2.986,2.985a1,1,0,1,0,1.414-1.414L3.414,39H9V37Z"/><path d="M59.96,38.25a.834.834,0,0,0,.029-.194,1.046,1.046,0,0,0,0-.112.834.834,0,0,0-.029-.194.265.265,0,0,0-.027-.095c-.005-.013-.006-.026-.011-.039l0-.006a.988.988,0,0,0-.21-.32c-.005-.005-.012-.007-.018-.012l-2.985-2.985a1,1,0,0,0-1.414,1.414L56.586,37H51v2h5.586l-1.293,1.293a1,1,0,1,0,1.414,1.414l2.986-2.985c.005-.005.012-.007.017-.012a.988.988,0,0,0,.21-.32l0-.006c.005-.013.006-.026.011-.039A.265.265,0,0,0,59.96,38.25Z"/><text x="0" y="75" fill="#000000" font-size="5px" font-weight="bold" font-family="'Helvetica Neue', Helvetica, Arial-Unicode, Arial, Sans-serif">Created by Juicy Fish</text><text x="0" y="80" fill="#000000" font-size="5px" font-weight="bold" font-family="'Helvetica Neue', Helvetica, Arial-Unicode, Arial, Sans-serif">from the Noun Project</text></svg>