<svg xmlns="http://www.w3.org/2000/svg" xmlns:xlink="http://www.w3.org/1999/xlink" version="1.1" x="0px" y="0px" viewBox="0 0 66 82.5" enable-background="new 0 0 66 66" xml:space="preserve"><g><path d="M22.4,53.6c-0.5,0-1,0.4-1,1V64c0,0.5,0.4,1,1,1h8.8c0.5,0,1-0.4,1-1v-9.5c0-0.5-0.4-1-1-1H22.4z M30.2,63.1h-6.8v-7.5h6.8   V63.1z"/><path d="M9.5,55.4c1.9-3.3,5.3-9.5,5.3-9.6c0-0.1,0.1-0.2,0.1-0.2l2.1-8.6l6.7,1.1l0.1,9.4c0,1.8,1.5,3.2,3.2,3.2   c1.8,0,3.2-1.4,3.2-3.2V35.6c0-1.4-0.7-2.6-2-3.2l-7.5-3.8l1.3-4.7l2.9,4.1c0.1,0.1,0.3,0.3,0.4,0.3l7.5,3.1c1.2,0.5,2.6,0.1,3.4-1   c1.1-1.5,0.5-3.5-1.1-4.3l-6.6-3L25.8,17c-0.2-1.7-1.4-3.2-3.3-4.2c-2.2-1.2-4.7-1.4-6.5-0.6L5.2,15c-1.3,0.3-2.3,1.4-2.5,2.7   l-1.5,8.7C0.9,28,2,29.5,3.6,29.8C5.1,30.1,6.7,29,7,27.4l1-6l4.7-1.7C7.7,31.9,9.2,25.2,8,43l-4.5,9.1c-0.8,1.7-0.1,3.7,1.5,4.6   C6.7,57.5,8.6,56.9,9.5,55.4z M28.3,35.6v11.8c0,0.7-0.6,1.3-1.3,1.3c-0.7,0-1.3-0.6-1.3-1.3l-0.1-10.3c0-0.5-0.3-0.9-0.8-0.9   c-5.1-1.4-13-0.6-13.9-5.7c2.6,0.7,5.4,0.6,8.7-0.3l7.8,4C28,34.5,28.3,35,28.3,35.6z M21.6,14.5c1.3,0.7,2.2,1.8,2.3,2.9   c0,0.1,0,0.2,0.1,0.3l3.1,6.7c0.1,0.2,0.3,0.4,0.5,0.5l6.9,3.1c0.5,0.2,0.7,0.9,0.4,1.4c-0.3,0.3-0.7,0.5-1.1,0.3l-7.2-3l-4-5.5   c-0.2-0.3-0.6-0.5-1-0.4c-0.4,0.1-0.7,0.3-0.8,0.7l-1.9,6.9c-3,0.8-5.5,0.9-7.8,0.2l5.9-14.7C18.3,13.4,20.1,13.7,21.6,14.5z    M6.7,19.8c-0.3,0.1-0.6,0.4-0.6,0.8L5,27.1c-0.1,0.5-0.6,0.9-1.1,0.8c-0.5-0.1-0.9-0.6-0.8-1.1l1.5-8.7c0.1-0.6,0.5-1,1.1-1.2   l8.9-2.3l-1.1,2.8L6.7,19.8z M5.2,53l4.6-9.3c0.1-0.1,0.1-0.2,0.1-0.4l0.6-9.3c1,1.2,2.6,2,4.6,2.5l-2,8.5   c-0.5,0.9-3.5,6.4-5.2,9.4c-0.4,0.7-1.3,0.9-2,0.6C5.2,54.6,4.9,53.7,5.2,53z"/><path d="M19.7,6.4c0,3,2.4,5.4,5.4,5.4c3,0,5.4-2.4,5.4-5.4c0-3-2.4-5.4-5.4-5.4C22.1,1,19.7,3.4,19.7,6.4z M28.5,6.4   c0,1.9-1.6,3.5-3.5,3.5c-1.9,0-3.4-1.6-3.4-3.5c0-1.9,1.5-3.4,3.4-3.4C27,2.9,28.5,4.5,28.5,6.4z"/><path d="M48.5,43.9h-8.8c-0.5,0-1,0.4-1,1V64c0,0.5,0.4,1,1,1h8.8c0.5,0,1-0.4,1-1V44.9C49.4,44.3,49,43.9,48.5,43.9z M47.5,63.1   h-6.8V45.8h6.8V63.1z"/><path d="M63.9,34.2h-8.8c-0.5,0-1,0.4-1,1V64c0,0.5,0.4,1,1,1h8.8c0.5,0,1-0.4,1-1V35.2C64.8,34.6,64.4,34.2,63.9,34.2z M62.9,63.1   h-6.8V36.1h6.8V63.1z"/><path d="M61.4,1H44c-1.9,0-3.5,1.6-3.5,3.5v23.4c0,1.9,1.6,3.5,3.5,3.5h17.3c1.9,0,3.5-1.6,3.5-3.5V4.5C64.8,2.6,63.3,1,61.4,1z    M62.9,27.9c0,0.8-0.7,1.5-1.5,1.5H44c-0.8,0-1.5-0.7-1.5-1.5V4.5c0-0.8,0.7-1.5,1.5-1.5h17.3c0.8,0,1.5,0.7,1.5,1.5V27.9z"/><path d="M59,19.9H46.4c-0.5,0-1,0.4-1,1c0,0.5,0.4,1,1,1H59c0.5,0,1-0.4,1-1C60,20.3,59.6,19.9,59,19.9z"/><path d="M59,10.5H46.4c-0.5,0-1,0.4-1,1s0.4,1,1,1H59c0.5,0,1-0.4,1-1S59.6,10.5,59,10.5z"/><path d="M59,15.2H46.4c-0.5,0-1,0.4-1,1c0,0.5,0.4,1,1,1H59c0.5,0,1-0.4,1-1C60,15.6,59.6,15.2,59,15.2z"/><path d="M59,24.5H46.4c-0.5,0-1,0.4-1,1c0,0.5,0.4,1,1,1H59c0.5,0,1-0.4,1-1C60,25,59.6,24.5,59,24.5z"/><path d="M59,5.8H46.4c-0.5,0-1,0.4-1,1s0.4,1,1,1H59c0.5,0,1-0.4,1-1S59.6,5.8,59,5.8z"/></g><text x="0" y="81" fill="#000000" font-size="5px" font-weight="bold" font-family="'Helvetica Neue', Helvetica, Arial-Unicode, Arial, Sans-serif">Created by ProSymbols</text><text x="0" y="86" fill="#000000" font-size="5px" font-weight="bold" font-family="'Helvetica Neue', Helvetica, Arial-Unicode, Arial, Sans-serif">from the Noun Project</text></svg>