<svg xmlns="http://www.w3.org/2000/svg" xmlns:xlink="http://www.w3.org/1999/xlink" version="1.1" x="0px" y="0px" viewBox="0 0 98 122.5" style="enable-background:new 0 0 98 98;" xml:space="preserve"><style type="text/css">
	.st0{fill-rule:evenodd;clip-rule:evenodd;}
</style><path class="st0" d="M83.881,52.966c-2.663-2.663-6.342-4.31-10.406-4.31c-4.064,0-7.743,1.647-10.406,4.31  c-2.663,2.663-4.31,6.342-4.31,10.406s1.647,7.743,4.31,10.406c2.663,2.663,6.342,4.31,10.406,4.31c4.064,0,7.743-1.647,10.406-4.31  c2.663-2.663,4.31-6.342,4.31-10.406C88.191,59.308,86.544,55.629,83.881,52.966z M73.421,57.525  c-0.592,0.013-1.134,0.26-1.529,0.652c-0.383,0.381-0.623,0.902-0.623,1.479h-0.005l0.001,0.05c0.035,1.585,1.39,1.988,2.718,2.382  c2.321,0.689,4.598,1.365,4.557,4.933c-0.016,1.403-0.583,2.669-1.494,3.58h-0.006c-0.606,0.606-1.362,1.058-2.208,1.295  l0.011,1.452c0.006,0.788-0.628,1.433-1.416,1.439c-0.789,0.006-1.433-0.628-1.439-1.416l-0.012-1.514  c-0.798-0.246-1.512-0.684-2.088-1.26c-0.917-0.918-1.485-2.186-1.485-3.586c0-0.791,0.642-1.433,1.433-1.433  c0.791,0,1.433,0.642,1.433,1.433c0,0.609,0.247,1.16,0.646,1.559c0.399,0.399,0.95,0.646,1.559,0.646  c0.607,0,1.152-0.244,1.548-0.637l-0.003-0.003c0.406-0.406,0.659-0.964,0.666-1.576c0.016-1.418-1.234-1.79-2.508-2.167  c-2.321-0.689-4.686-1.391-4.767-5.069l-0.001-0.095l-0.005-0.011c0-1.369,0.566-2.605,1.474-3.506  c0.579-0.575,1.3-1.012,2.103-1.258l-0.012-1.495c-0.006-0.788,0.628-1.433,1.417-1.439c0.788-0.006,1.433,0.628,1.439,1.416  l0.012,1.474c0.85,0.237,1.612,0.692,2.22,1.3l0.006,0.006c0.917,0.918,1.485,2.184,1.485,3.58c0,0.791-0.642,1.433-1.433,1.433  c-0.791,0-1.433-0.642-1.433-1.433c0-0.611-0.246-1.163-0.643-1.562c-0.398-0.397-0.951-0.643-1.562-0.643v-0.005L73.421,57.525z   M13.495,15.546H9.809v-2.627h71.503v2.627h-3.687l-0.018,0l-0.017,0H13.53l-0.017,0L13.495,15.546z M27.625,51.222v13.916h-3.094  V51.222H27.625z M39.229,42.668v22.469h-3.094V42.668H39.229z M65.142,36.589v11.483c2.475-1.351,5.315-2.119,8.333-2.119  c0.947,0,1.876,0.076,2.781,0.221V18.249H14.864v46.888h6.964V49.87c0-0.746,0.605-1.351,1.351-1.351h5.796  c0.746,0,1.351,0.605,1.351,1.351v15.267h3.105v-23.82c0-0.746,0.605-1.352,1.351-1.352h5.797c0.746,0,1.351,0.605,1.351,1.352  v23.82h3.105V46.601c0-0.746,0.605-1.351,1.351-1.351h5.797c0.746,0,1.351,0.605,1.351,1.351v18.536h2.607  c-0.058-0.581-0.089-1.17-0.089-1.766c0-1.556,0.204-3.063,0.587-4.499V36.589c0-0.746,0.605-1.351,1.351-1.351h5.796  C64.537,35.238,65.142,35.843,65.142,36.589z M62.536,30.602c-0.744,0.003-1.349-0.598-1.351-1.341l-0.007-1.772L49.81,38.697  c-0.428,0.452-1.128,0.56-1.68,0.223l-11.637-7.121L24.318,38.93c-0.641,0.376-1.467,0.161-1.843-0.48  c-0.376-0.641-0.161-1.466,0.48-1.842l12.873-7.54c0.443-0.259,0.973-0.237,1.382,0.012l11.425,6.989L59.24,25.615l-1.726,0.007  c-0.743,0.003-1.349-0.597-1.351-1.341c-0.003-0.743,0.598-1.349,1.341-1.351l5.001-0.021c0.743-0.003,1.349,0.597,1.351,1.341  l0.021,5.001C63.88,29.995,63.28,30.6,62.536,30.602z M50.834,47.952v17.185H47.74V47.952H50.834z M59.345,53.183V37.94h3.094  v11.954c-0.446,0.366-0.874,0.753-1.281,1.16C60.499,51.714,59.892,52.425,59.345,53.183z M57.562,70.467  c-0.376-0.842-0.688-1.721-0.927-2.628h-4.449h-5.797h-5.808h-5.797h-5.808h-5.796h-9.666h-2.88v2.628h34.772v6.414  c-0.633,0.208-1.2,0.562-1.661,1.023l-0.005,0.005c-0.761,0.761-1.231,1.81-1.231,2.967c0,1.157,0.471,2.207,1.231,2.967  l0.005,0.005c0.761,0.76,1.81,1.231,2.967,1.231c1.156,0,2.207-0.471,2.97-1.234l0.003,0.003c0.761-0.761,1.231-1.812,1.231-2.973  c0-1.161-0.471-2.212-1.231-2.973l-0.003,0.003c-0.462-0.462-1.03-0.817-1.664-1.025v-6.414H57.562z M48.302,80.877  c0,0.439-0.178,0.837-0.466,1.125v0.005c-0.284,0.285-0.682,0.461-1.125,0.461c-0.442,0-0.84-0.177-1.128-0.463  c-0.286-0.288-0.463-0.686-0.463-1.128c0-0.442,0.177-0.84,0.463-1.128c0.288-0.286,0.686-0.463,1.128-0.463  c0.443,0,0.841,0.176,1.125,0.461v0.005C48.124,80.039,48.302,80.437,48.302,80.877z"/><text x="0" y="113" fill="#000000" font-size="5px" font-weight="bold" font-family="'Helvetica Neue', Helvetica, Arial-Unicode, Arial, Sans-serif">Created by Kids Boy</text><text x="0" y="118" fill="#000000" font-size="5px" font-weight="bold" font-family="'Helvetica Neue', Helvetica, Arial-Unicode, Arial, Sans-serif">from the Noun Project</text></svg>