<svg xmlns="http://www.w3.org/2000/svg" xmlns:xlink="http://www.w3.org/1999/xlink" version="1.1" x="0px" y="0px" viewBox="0 0 64 80" style="enable-background:new 0 0 64 64;" xml:space="preserve"><path d="M18.54,37.293c-0.19-0.19-0.463-0.302-0.722-0.293c-0.27,0.004-0.527,0.117-0.713,0.313l-2.833,3  c-0.371,0.394-0.362,1.011,0.021,1.394l11,11C25.48,52.895,25.735,53,26,53c0.005,0,0.01,0,0.015,0  c0.27-0.004,0.527-0.117,0.713-0.313l2.832-3c0.372-0.394,0.363-1.011-0.02-1.394l-1.019-1.019L29.069,47h10.764  c0.28,0,0.548-0.117,0.737-0.324l9.598-10.471c0.884-0.964,1.086-2.347,0.515-3.522c-0.631-1.302-2.022-1.995-3.73-1.874  c-0.239,0.018-0.464,0.121-0.633,0.29l-5.593,5.593C40.208,36.266,39.554,36,38.833,36h-3.586l-1.707-1.707  C33.353,34.105,33.099,34,32.833,34h-7c-0.234,0-0.461,0.082-0.641,0.231l-5.298,4.415L18.54,37.293z M25.979,50.565l-9.585-9.585  l1.459-1.546l9.585,9.585L25.979,50.565z M26.195,36h6.224l1.707,1.707C34.313,37.895,34.567,38,34.833,38h4  c0.405,0,0.75,0.244,0.908,0.591c0,0.001,0,0.001,0.001,0.002c0.016,0.035,0.019,0.07,0.031,0.105  c0.026,0.081,0.046,0.164,0.051,0.252c0.002,0.037,0,0.074-0.002,0.111c-0.004,0.068-0.022,0.13-0.039,0.193  c-0.028,0.092-0.057,0.183-0.112,0.259c-0.002,0.002-0.003,0.005-0.005,0.007C39.442,39.826,39.032,40,38.661,40h-6.828v2h6.828  h0.172c1.098,0,2.05-0.599,2.573-1.482c0.006-0.009,0.01-0.019,0.015-0.028c0.078-0.134,0.149-0.272,0.205-0.418  c0.028-0.069,0.045-0.143,0.067-0.215c0.03-0.101,0.064-0.199,0.084-0.304c0.002-0.012,0.008-0.024,0.01-0.036  c0.026-0.144,0.033-0.289,0.037-0.433c0.001-0.028,0.008-0.055,0.008-0.083c0-0.002-0.001-0.004-0.001-0.006  c0-0.178-0.017-0.355-0.049-0.53l5.668-5.669c0.692,0.024,1.205,0.293,1.433,0.761c0.21,0.434,0.136,0.942-0.19,1.298L39.394,45  H28.833c-0.155,0-0.309,0.036-0.447,0.105l-1.355,0.678l-5.716-5.716L26.195,36z"/><path d="M44,20c0-6.617-5.383-12-12-12s-12,5.383-12,12s5.383,12,12,12S44,26.617,44,20z M22,20c0-5.514,4.486-10,10-10  s10,4.486,10,10s-4.486,10-10,10S22,25.514,22,20z"/><path d="M33,28v-1.142c1.721-0.447,3-1.999,3-3.858c0-0.266-0.105-0.52-0.293-0.707l-5.671-5.671C30.213,15.699,31.026,15,32,15  c1.103,0,2,0.897,2,2h2c0-1.859-1.279-3.411-3-3.858V12h-2v1.142c-1.721,0.447-3,1.999-3,3.858c0,0.266,0.105,0.52,0.293,0.707  l5.671,5.671C33.787,24.301,32.974,25,32,25c-1.103,0-2-0.897-2-2h-2c0,1.859,1.279,3.411,3,3.858V28H33z"/><path d="M5.105,37.309C6.281,51.119,17.891,62,32,62c14.888,0,27-12.112,27-27h-2c0,13.785-11.215,25-25,25  C19.073,60,8.407,50.138,7.129,37.543l2.164,2.164l1.414-1.414l-4-4c-0.391-0.391-1.023-0.391-1.414,0l-4,4l1.414,1.414  L5.105,37.309z"/><path d="M58.901,26.685C57.729,12.743,46.15,2,32,2C17.421,2,5.569,13.404,5.02,27.962l1.998,0.076C7.527,14.559,18.501,4,32,4  c12.971,0,23.605,9.75,24.869,22.455l-2.162-2.162l-1.414,1.414l4,4C57.488,29.902,57.744,30,58,30s0.512-0.098,0.707-0.293l4-4  l-1.414-1.414L58.901,26.685z"/><text x="0" y="79" fill="#000000" font-size="5px" font-weight="bold" font-family="'Helvetica Neue', Helvetica, Arial-Unicode, Arial, Sans-serif">Created by Becris</text><text x="0" y="84" fill="#000000" font-size="5px" font-weight="bold" font-family="'Helvetica Neue', Helvetica, Arial-Unicode, Arial, Sans-serif">from the Noun Project</text></svg>