<svg xmlns="http://www.w3.org/2000/svg" xmlns:xlink="http://www.w3.org/1999/xlink" viewBox="0 0 5075.43 5084.84"><defs><linearGradient id="linear-gradient" x1="5477.22" y1="5137.82" x2="1726.5" y2="1855.95" gradientUnits="userSpaceOnUse"><stop offset="0" stop-color="#dae3fe"/><stop offset="1" stop-color="#e9effd"/></linearGradient><linearGradient id="linear-gradient-2" x1="1544.38" y1="725.93" x2="1726.35" y2="725.93" xlink:href="#linear-gradient"/><linearGradient id="linear-gradient-3" x1="1410.39" y1="724.5" x2="1857.78" y2="724.5" xlink:href="#linear-gradient"/><linearGradient id="linear-gradient-4" x1="2182.12" y1="1087.05" x2="2306.09" y2="1087.05" xlink:href="#linear-gradient"/><linearGradient id="linear-gradient-5" x1="2088.92" y1="1086.07" x2="2397.59" y2="1086.07" xlink:href="#linear-gradient"/><linearGradient id="linear-gradient-6" x1="5629.22" y1="-506.54" x2="5299.03" y2="383.15" gradientUnits="userSpaceOnUse"><stop offset="0" stop-color="#ff928e"/><stop offset="1" stop-color="#fe7062"/></linearGradient><linearGradient id="linear-gradient-7" x1="4079.15" y1="4035.24" x2="4840.4" y2="1383.15" gradientTransform="translate(-8.81 6.45) rotate(-0.14)" gradientUnits="userSpaceOnUse"><stop offset="0" stop-color="#febbba"/><stop offset="1" stop-color="#ff928e"/></linearGradient><linearGradient id="linear-gradient-8" x1="4033.48" y1="4092.73" x2="4794.73" y2="1440.64" gradientTransform="matrix(1, -0.01, 0, 1, -11.59, 18.77)" xlink:href="#linear-gradient-7"/><linearGradient id="linear-gradient-9" x1="4061.3" y1="4100.72" x2="4822.55" y2="1448.63" gradientTransform="matrix(1, -0.01, 0, 1, -11.59, 18.77)" xlink:href="#linear-gradient-7"/><linearGradient id="linear-gradient-10" x1="4089.13" y1="4108.7" x2="4850.38" y2="1456.61" gradientTransform="matrix(1, -0.01, 0, 1, -11.59, 18.77)" xlink:href="#linear-gradient-7"/><linearGradient id="linear-gradient-11" x1="5631.29" y1="-505.77" x2="5301.1" y2="383.91" xlink:href="#linear-gradient-6"/><linearGradient id="linear-gradient-12" x1="4080.58" y1="4035.66" x2="4841.83" y2="1383.56" xlink:href="#linear-gradient-7"/><clipPath id="clip-path"><rect x="610.83" y="2083.85" width="1689.72" height="1823.7" rx="12" style="fill:none"/></clipPath><linearGradient id="linear-gradient-13" x1="2018.92" y1="3006.6" x2="2271.46" y2="3849.08" gradientUnits="userSpaceOnUse"><stop offset="0" stop-color="#09005d"/><stop offset="1" stop-color="#1a0f91"/></linearGradient><linearGradient id="linear-gradient-14" x1="579.87" y1="3273.56" x2="836.17" y2="4128.58" xlink:href="#linear-gradient-13"/><linearGradient id="linear-gradient-15" x1="3290.91" y1="-1374.36" x2="2960.72" y2="-484.67" xlink:href="#linear-gradient-6"/><linearGradient id="linear-gradient-16" x1="1435.57" y1="2978.58" x2="1473.94" y2="3622.07" gradientTransform="matrix(1, 0, 0, 1, 0, 0)" xlink:href="#linear-gradient-7"/><linearGradient id="linear-gradient-17" x1="1359.96" y1="2464.66" x2="1898.67" y2="3183.43" gradientTransform="matrix(1, 0, 0, 1, 0, 0)" xlink:href="#linear-gradient-7"/><linearGradient id="linear-gradient-18" x1="1518.08" y1="2346.15" x2="2056.79" y2="3064.92" gradientTransform="matrix(1, 0, 0, 1, 0, 0)" xlink:href="#linear-gradient-7"/><linearGradient id="linear-gradient-19" x1="1176.14" y1="2602.43" x2="1714.85" y2="3321.2" gradientTransform="matrix(1, 0, 0, 1, 0, 0)" xlink:href="#linear-gradient-7"/><linearGradient id="linear-gradient-20" x1="1168.72" y1="2712.67" x2="1691.67" y2="2712.67" xlink:href="#linear-gradient-13"/><linearGradient id="linear-gradient-21" x1="1433.81" y1="2906.97" x2="1433.81" y2="1937.6" xlink:href="#linear-gradient-13"/><linearGradient id="linear-gradient-22" x1="934.8" y1="3129.22" x2="1207.07" y2="4037.51" xlink:href="#linear-gradient-13"/><linearGradient id="linear-gradient-23" x1="1814.56" y1="2880.49" x2="2112.49" y2="3874.4" xlink:href="#linear-gradient-13"/><linearGradient id="linear-gradient-24" x1="4725.52" y1="2169.98" x2="4507.16" y2="2839.29" gradientTransform="translate(-755)" xlink:href="#linear-gradient-7"/><linearGradient id="linear-gradient-25" x1="3146.57" y1="-247.77" x2="4062.92" y2="2001.46" xlink:href="#linear-gradient-6"/><linearGradient id="linear-gradient-26" x1="3252.59" y1="23.25" x2="3998.92" y2="1855.16" xlink:href="#linear-gradient-13"/><linearGradient id="linear-gradient-27" x1="4359.87" y1="-977.64" x2="4029.68" y2="-87.96" xlink:href="#linear-gradient-6"/><linearGradient id="linear-gradient-28" x1="3990.36" y1="1058.2" x2="2914.13" y2="2146.66" xlink:href="#linear-gradient-6"/><linearGradient id="linear-gradient-29" x1="4438" y1="616.26" x2="5355.2" y2="-319.29" gradientUnits="userSpaceOnUse"><stop offset="0" stop-color="#e1473d"/><stop offset="1" stop-color="#e9605a"/></linearGradient><linearGradient id="linear-gradient-30" x1="4675.55" y1="4521.13" x2="5127.68" y2="4521.13" gradientTransform="translate(-755)" xlink:href="#linear-gradient-7"/><linearGradient id="linear-gradient-31" x1="5297.01" y1="3510.04" x2="5073.1" y2="4965.42" gradientTransform="translate(-755)" xlink:href="#linear-gradient-13"/><linearGradient id="linear-gradient-32" x1="4823.25" y1="3437.16" x2="4599.34" y2="4892.54" gradientTransform="translate(-755)" xlink:href="#linear-gradient-13"/><linearGradient id="linear-gradient-33" x1="4401.21" y1="4554.74" x2="4663.02" y2="4554.74" gradientTransform="translate(-755)" xlink:href="#linear-gradient-7"/><linearGradient id="linear-gradient-34" x1="3837.21" y1="2590.44" x2="4349.76" y2="2590.44" gradientTransform="translate(-755)" xlink:href="#linear-gradient-7"/><linearGradient id="linear-gradient-35" x1="5826.4" y1="2303" x2="4753.27" y2="2743.25" xlink:href="#linear-gradient-6"/><linearGradient id="linear-gradient-36" x1="4170.05" y1="3371.97" x2="5009.69" y2="4318.9" gradientTransform="translate(-755)" xlink:href="#linear-gradient-29"/><linearGradient id="linear-gradient-37" x1="4480.58" y1="2842.08" x2="4640.8" y2="2842.08" gradientTransform="translate(-755)" xlink:href="#linear-gradient-7"/><linearGradient id="linear-gradient-38" x1="4735.21" y1="2635.03" x2="5901.38" y2="2714.33" gradientTransform="translate(-755)" xlink:href="#linear-gradient-7"/><linearGradient id="linear-gradient-39" x1="1506.77" y1="3581.55" x2="683.81" y2="4265.75" gradientTransform="translate(7895.39 1545.18) rotate(81.48)" xlink:href="#linear-gradient-13"/></defs><g style="isolation:isolate"><g id="Layer_2" data-name="Layer 2"><g id="Illustration"><path d="M4839.79,3433.4C4355.05,4574.78,3063.8,5214.18,1944,5041.71c-182.21-28.07-681.74-111.67-1124-506.08C-31.37,3776.36-213.44,2272.91,473.35,1213.39,973.21,442.25,1869.27,5.12,2720.7,27,2904.1,31.69,3607,60.72,4224.65,570.05c90.72,74.81,290.83,252.59,471.17,534.61C5119.3,1766.9,5155.7,2689.55,4839.79,3433.4Z" style="fill:url(#linear-gradient)"/><g style="opacity:0.30000000000000004"><path d="M2141,837a13.28,13.28,0,0,1-10.66-15.45c2.57-14,4.57-28.31,5.95-42.56a13.27,13.27,0,0,1,14.22-12l.26,0a13.27,13.27,0,0,1,11.92,14.49c-1.44,15-3.55,30.06-6.25,44.8a13.28,13.28,0,0,1-14.06,10.83Q2141.71,837.1,2141,837Zm-2.78-127.79c-.57-14.29-1.77-28.68-3.55-42.81a13.26,13.26,0,1,1,26.32-3.31c1.87,14.85,3.13,30,3.74,45A13.26,13.26,0,0,1,2152,721.91a13.8,13.8,0,0,1-1.58,0A13.28,13.28,0,0,1,2138.24,709.19Zm-17.08-111.25c-3.74-13.77-8.12-27.53-13-40.93a13.26,13.26,0,1,1,24.91-9.12c5.17,14.11,9.78,28.61,13.71,43.1a13.27,13.27,0,0,1-9.33,16.28,13,13,0,0,1-4.49.42A13.27,13.27,0,0,1,2121.16,597.94ZM2079.62,493.3c-6.73-12.6-14.08-25.05-21.85-37A13.27,13.27,0,1,1,2080,441.84c8.18,12.59,15.92,25.7,23,39a13.26,13.26,0,0,1-23.4,12.5Zm-63.82-92.78c-9.33-10.76-19.26-21.28-29.5-31.25a13.26,13.26,0,0,1,18.5-19c10.78,10.49,21.23,21.56,31,32.88a13.26,13.26,0,1,1-20,17.38Zm-82.75-76.35c-11.5-8.44-23.5-16.5-35.68-23.94a13.26,13.26,0,0,1,13.83-22.64c12.82,7.83,25.45,16.32,37.55,25.2a13.26,13.26,0,1,1-15.7,21.38Zm-486.81-75.12a13.27,13.27,0,0,1,7.92-17c14.1-5.13,28.62-9.72,43.15-13.63a13.26,13.26,0,0,1,6.9,25.61c-13.8,3.72-27.58,8.08-41,13a13.24,13.24,0,0,1-17-7.92Zm389.25,19.06c-13.08-5.68-26.57-10.85-40.09-15.38a13.27,13.27,0,0,1,8.43-25.16c14.24,4.77,28.44,10.22,42.21,16.2a13.26,13.26,0,1,1-10.55,24.34Zm-277.59-49a13.27,13.27,0,0,1,11.53-14.8c14.89-1.84,30.06-3.07,45.08-3.65a13.27,13.27,0,0,1,1,26.51c-14.28.55-28.7,1.72-42.85,3.48a13.31,13.31,0,0,1-14.79-11.54Zm170,16.16c-14-2.6-28.32-4.63-42.54-6a13.26,13.26,0,0,1,2.32-26.42l.28,0c15,1.47,30,3.61,44.78,6.34a13.27,13.27,0,0,1-3.43,26.27A11.33,11.33,0,0,1,1727.87,235.25Z" style="fill:#bdd0fb"/><path d="M1373.41,297.41a13.17,13.17,0,0,0,7.72-1.79c5.9-3.46,12-6.85,18-10.09a13.26,13.26,0,0,0-12.48-23.41c-6.39,3.41-12.77,7-19,10.62a13.27,13.27,0,0,0,5.7,24.67Z" style="fill:#bdd0fb"/></g><g style="opacity:0.30000000000000004"><path d="M1132.17,622a13.26,13.26,0,0,0,13.91-10.12c1.6-6.65,3.36-13.38,5.25-20a13.27,13.27,0,0,0-25.52-7.27c-2,7-3.84,14-5.53,21a13.27,13.27,0,0,0,9.8,16A12.78,12.78,0,0,0,1132.17,622Z" style="fill:#bdd0fb"/><path d="M1568,1255.58a13.27,13.27,0,1,1,3.34-26.32c13.83,1.76,28,3,42.14,3.57a13.27,13.27,0,1,1-1.15,26.51q-9.22-.4-18.35-1.11C1585.34,1257.56,1576.59,1256.67,1568,1255.58Zm102.16-10a13.28,13.28,0,0,1,12-14.43c14-1.29,28.11-3.19,41.91-5.65a13.27,13.27,0,1,1,4.65,26.12c-14.53,2.59-29.38,4.59-44.12,5.95a13.13,13.13,0,0,1-2.26,0A13.27,13.27,0,0,1,1670.2,1245.59Zm-173.08-4c-14.25-3.84-28.53-8.34-42.44-13.39a13.26,13.26,0,1,1,9-24.94c13.21,4.8,26.77,9.07,40.3,12.72a13.26,13.26,0,0,1-4.46,26A13,13,0,0,1,1497.12,1241.59Zm285.08-16a13.25,13.25,0,0,1,8.52-16.7c13.36-4.33,26.69-9.29,39.63-14.73a13.26,13.26,0,0,1,10.28,24.45c-13.62,5.73-27.66,11-41.73,15.51a13.25,13.25,0,0,1-16.7-8.53ZM1388.63,1199c-13.05-6.88-26-14.41-38.45-22.39a13.26,13.26,0,1,1,14.3-22.34c11.84,7.58,24.12,14.73,36.52,21.26a13.27,13.27,0,1,1-12.37,23.47Zm-96.52-65.38c-11.26-9.59-22.24-19.76-32.64-30.24a13.26,13.26,0,1,1,18.82-18.69c9.89,9.95,20.32,19.62,31,28.73a13.27,13.27,0,0,1-17.2,20.2Zm-80-84.87c-8.9-11.82-17.41-24.14-25.28-36.62A13.26,13.26,0,1,1,1209.29,998c7.48,11.87,15.56,23.57,24,34.8a13.27,13.27,0,0,1-21.19,16Zm-59.56-100.29c-6.1-13.48-11.7-27.37-16.64-41.29a13.26,13.26,0,1,1,25-8.87c4.69,13.22,10,26.41,15.81,39.21a13.27,13.27,0,0,1-24.17,10.95Zm-36.08-111c-3-14.45-5.38-29.22-7.13-43.91a13.26,13.26,0,1,1,26.34-3.15c1.66,14,3.94,28,6.77,41.71a13.26,13.26,0,1,1-26,5.35Zm-10.82-116.07c.17-10.88.69-21.88,1.52-32.7q.46-5.89,1-11.72a13.12,13.12,0,0,1,14.51-11.89,13.27,13.27,0,0,1,11.89,14.51q-.56,5.55-1,11.14c-.79,10.29-1.28,20.75-1.45,31.09a13.26,13.26,0,0,1-13.48,13,7.5,7.5,0,0,1-.82,0A13.25,13.25,0,0,1,1105.67,721.37Z" style="fill:#bdd0fb"/><path d="M1897.71,1187.71a13.19,13.19,0,0,0,7.78-1.82c6.18-3.66,12.4-7.52,18.48-11.48a13.27,13.27,0,1,0-14.47-22.24c-5.77,3.76-11.68,7.43-17.54,10.91a13.26,13.26,0,0,0,5.75,24.63Z" style="fill:#bdd0fb"/></g><path d="M1954.19,967.43a6.17,6.17,0,0,0,1-7.12l-34.65-67A328.83,328.83,0,0,0,1959,794l70.68-26.27a6.21,6.21,0,0,0,4-6l-2.15-90.48a6.19,6.19,0,0,0-4.32-5.76l-71.85-22.88a328.89,328.89,0,0,0-43.11-97.38l31.42-68.6a6.21,6.21,0,0,0-1.35-7.07l-65.51-62.46a6.21,6.21,0,0,0-7.12-1l-67,34.65a328.7,328.7,0,0,0-99.31-38.43l-26.27-70.69a6.18,6.18,0,0,0-6-4l-90.48,2.15a6.18,6.18,0,0,0-5.76,4.31L1552,405.91A328.49,328.49,0,0,0,1454.66,449l-68.59-31.43A6.19,6.19,0,0,0,1379,419l-62.46,65.5a6.18,6.18,0,0,0-1,7.12l34.65,67a328.36,328.36,0,0,0-38.44,99.31l-70.68,26.27a6.2,6.2,0,0,0-4,5.95l2.15,90.49a6.21,6.21,0,0,0,4.32,5.76l71.85,22.88a328.83,328.83,0,0,0,43.11,97.37L1327,975.24a6.21,6.21,0,0,0,1.36,7.07l65.5,62.46a6.22,6.22,0,0,0,7.13,1l67-34.65a328.62,328.62,0,0,0,99.31,38.44l26.27,70.68a6.2,6.2,0,0,0,6,4l90.48-2.15a6.21,6.21,0,0,0,5.76-4.32l22.88-71.85a328.83,328.83,0,0,0,97.37-43.11l68.6,31.42a6.19,6.19,0,0,0,7.07-1.36Z" style="fill:#bdd0fb"/><path d="M1615.2,814.65a90.88,90.88,0,1,1,13.21,2A91.07,91.07,0,0,1,1615.2,814.65Zm-17-147.74a69.75,69.75,0,1,0,52.63-9,72.28,72.28,0,0,0-10.23-1.55A69.36,69.36,0,0,0,1598.2,666.91Z" style="fill:url(#linear-gradient-2)"/><path d="M1616.42,947.52a228,228,0,0,0,23,.62h0q3.64-.09,7.29-.29a224.57,224.57,0,0,0,35.49-4.84l.48-.1,1.35-.31,2.62-.61a5.31,5.31,0,0,0,4-4.74,5.48,5.48,0,0,0-.13-1.66,5.32,5.32,0,0,0-6.4-3.92A213.29,213.29,0,0,1,1457,843a211.82,211.82,0,0,1-36-113.4,216.07,216.07,0,0,1,.58-21.93A213.13,213.13,0,0,1,1629,511.48c117.51-2.78,215.3,90.5,218.09,208a213.12,213.12,0,0,1-27.59,110.1,5.15,5.15,0,0,0-.67,2.21,5.3,5.3,0,0,0,9.9,3,223,223,0,0,0,28.36-92.88,226,226,0,0,0,.61-22.71c-2.93-123.32-105.67-221.25-229-218.32A223.75,223.75,0,0,0,1411.06,706.8a228.72,228.72,0,0,0-.61,23,223.72,223.72,0,0,0,206,217.71Z" style="fill:url(#linear-gradient-3)"/><g style="opacity:0.30000000000000004"><path d="M2566.76,1220.58a8.18,8.18,0,0,0,8.28-5.27c2.47-6.5,4.78-13.16,6.85-19.81a8.19,8.19,0,1,0-15.64-4.88c-2,6.33-4.17,12.68-6.53,18.89a8.2,8.2,0,0,0,4.76,10.56A8,8,0,0,0,2566.76,1220.58Z" style="fill:#bdd0fb"/><path d="M2582.78,1159.75a8.19,8.19,0,0,1-6.6-9.52,340,340,0,0,0,4.38-34.1q.29-3.6.48-7.23a8.21,8.21,0,0,1,8.65-7.72,8.49,8.49,0,0,1,7.72,8.65c-.15,2.53-.31,5.05-.51,7.57a355.23,355.23,0,0,1-4.6,35.74,8.2,8.2,0,0,1-8.69,6.71C2583.34,1159.83,2583.06,1159.79,2582.78,1159.75Zm-1.93-92.46a339.94,339.94,0,0,0-5.27-41.26,8.19,8.19,0,1,1,16.09-3.07,354.38,354.38,0,0,1,5.53,43.25,8.21,8.21,0,0,1-7.64,8.72,7.72,7.72,0,0,1-1.18,0A8.18,8.18,0,0,1,2580.85,1067.29Zm-15.61-81.56A335.55,335.55,0,0,0,2550,947a8.2,8.2,0,0,1,14.85-6.94,352.74,352.74,0,0,1,16,40.6,8.21,8.21,0,0,1-5.27,10.32,8.38,8.38,0,0,1-3.16.37A8.19,8.19,0,0,1,2565.24,985.73Zm-35.18-75.24a338.42,338.42,0,0,0-24.25-33.79,8.19,8.19,0,1,1,12.69-10.36,357.1,357.1,0,0,1,25.44,35.43,8.2,8.2,0,0,1-13.88,8.72Zm-52.48-64.37a340,340,0,0,0-31.73-26.89,8.19,8.19,0,1,1,9.81-13.12,357.06,357.06,0,0,1,33.26,28.18,8.19,8.19,0,0,1-11.34,11.83Zm-66.51-49.68a337.25,337.25,0,0,0-37.3-18.32,8.19,8.19,0,1,1,6.3-15.13,351.66,351.66,0,0,1,39.12,19.22,8.19,8.19,0,0,1-8.12,14.23Zm-76.61-31.89a336.51,336.51,0,0,0-40.69-8.61,8.19,8.19,0,0,1,2.4-16.21,353.5,353.5,0,0,1,42.67,9,8.19,8.19,0,0,1-2.81,16.06A8.6,8.6,0,0,1,2334.46,764.55Zm-132.69-17.94a8.19,8.19,0,0,1,7.35-9A355.56,355.56,0,0,1,2247,736c1.92,0,3.83,0,5.75.09a8.19,8.19,0,1,1-.42,16.38c-1.79,0-3.59-.07-5.42-.08a339.09,339.09,0,0,0-36.15,1.62,8.69,8.69,0,0,1-1.44,0A8.22,8.22,0,0,1,2201.77,746.61Z" style="fill:#bdd0fb"/></g><g style="opacity:0.30000000000000004"><path d="M2211.93,1442.16a355.55,355.55,0,0,1-42.4-6.43,8.19,8.19,0,0,1,3.44-16,339,339,0,0,0,40.44,6.13,8.19,8.19,0,0,1-1.37,16.33Zm34.46-6.66a8.2,8.2,0,0,1,8-8.43,341.54,341.54,0,0,0,40.77-3.67,8.19,8.19,0,0,1,2.44,16.2,357.4,357.4,0,0,1-42.72,3.85,8.75,8.75,0,0,1-.89,0A8.2,8.2,0,0,1,2246.39,1435.5Zm-118.2-11.32a356.51,356.51,0,0,1-39.6-16.5,8.2,8.2,0,0,1,7.21-14.72,339.41,339.41,0,0,0,37.77,15.75,8.19,8.19,0,0,1-3.31,15.9A8,8,0,0,1,2128.19,1424.18Zm201.24.73a8.19,8.19,0,0,1,5.69-10.09,337.74,337.74,0,0,0,38.66-13.41,8.2,8.2,0,0,1,6.31,15.13,351.55,351.55,0,0,1-40.56,14.06,8.22,8.22,0,0,1-10.1-5.69Zm-278.12-38.41a355.93,355.93,0,0,1-34.46-25.53,8.2,8.2,0,0,1,10.53-12.56,338.17,338.17,0,0,0,32.88,24.36,8.19,8.19,0,0,1-5.12,15A8.08,8.08,0,0,1,2051.31,1386.5Zm-65.61-55a359.28,359.28,0,0,1-27.36-33,8.19,8.19,0,1,1,13.23-9.66,343.84,343.84,0,0,0,26.1,31.52,8.19,8.19,0,0,1-12,11.19Zm-50.55-69.16a353.09,353.09,0,0,1-18.64-38.66,8.19,8.19,0,1,1,15.16-6.21,335.71,335.71,0,0,0,17.78,36.86,8.18,8.18,0,0,1-3.15,11.15,8,8,0,0,1-4.62,1A8.2,8.2,0,0,1,1935.15,1262.32Z" style="fill:#bdd0fb"/><path d="M2414.29,1398.51a8.19,8.19,0,0,0,4.68-1c6.09-3.47,12.11-7.14,17.89-10.89a8.2,8.2,0,0,0-8.94-13.74c-5.51,3.58-11.25,7.08-17.06,10.39a8.19,8.19,0,0,0,3.43,15.29Z" style="fill:#bdd0fb"/></g><path d="M2457.45,1248.63a4.13,4.13,0,0,0,.69-4.76L2435,1199a219.88,219.88,0,0,0,25.72-66.45L2508,1115a4.15,4.15,0,0,0,2.7-4l-1.44-60.54a4.15,4.15,0,0,0-2.89-3.86l-48.08-15.31a220,220,0,0,0-28.84-65.16l21-45.9a4.14,4.14,0,0,0-.91-4.73L2405.7,873.7a4.13,4.13,0,0,0-4.76-.69l-44.86,23.19a219.88,219.88,0,0,0-66.45-25.72l-17.58-47.3a4.15,4.15,0,0,0-4-2.7l-60.54,1.44a4.15,4.15,0,0,0-3.86,2.89l-15.31,48.08a219.74,219.74,0,0,0-65.16,28.85l-45.9-21a4.14,4.14,0,0,0-4.73.9l-41.79,43.84a4.13,4.13,0,0,0-.69,4.76l23.19,44.86a219.88,219.88,0,0,0-25.72,66.45l-47.3,17.58a4.15,4.15,0,0,0-2.7,4l1.44,60.54a4.15,4.15,0,0,0,2.89,3.86L2030,1142.8a219.85,219.85,0,0,0,28.85,65.16l-21,45.9a4.13,4.13,0,0,0,.91,4.73l43.83,41.79a4.14,4.14,0,0,0,4.76.69l44.86-23.19a219.88,219.88,0,0,0,66.45,25.72l17.58,47.3a4.15,4.15,0,0,0,4,2.7l60.54-1.44a4.15,4.15,0,0,0,3.86-2.89l15.31-48.08a219.74,219.74,0,0,0,65.16-28.85l45.9,21a4.14,4.14,0,0,0,4.73-.91Z" style="fill:#bdd0fb"/><path d="M2230.38,1147.47a61.88,61.88,0,1,1,9.08,1.37A62.83,62.83,0,0,1,2230.38,1147.47Zm-30.72-70.54a45.57,45.57,0,0,0,34.35,54.56h0a45.58,45.58,0,0,0,20.21-88.9,45.52,45.52,0,0,0-54.56,34.34Z" style="fill:url(#linear-gradient-4)"/><path d="M2231.23,1239.94q7.76.6,15.69.42a155.06,155.06,0,0,0,31.2-3.91l1.38-.33a8.19,8.19,0,0,0,6.25-7.33,8.18,8.18,0,0,0-10.08-8.6,138.49,138.49,0,0,1-29.13,3.79h0l-1.62,0a136.58,136.58,0,0,1-65.71-15.69,138.76,138.76,0,0,1-30.25-21.55l-.22-.21-.68-.65a137,137,0,0,1-42.71-96.56,139.53,139.53,0,0,1,.37-14.19,138,138,0,1,1,257.58,78.91,8.28,8.28,0,0,0-1,3.41,8.2,8.2,0,0,0,15.3,4.68,154,154,0,0,0,19.56-64.07,151.66,151.66,0,0,0,.42-15.68,154.34,154.34,0,0,0-308.15-8.54,158,158,0,0,0-.42,15.87C2090.87,1169.53,2153.31,1233.92,2231.23,1239.94Z" style="fill:url(#linear-gradient-5)"/><path d="M446,41.53C435,14.16,466.11-11,490.85,5c251.3,162.57,876.78,672.49,940,1750.78,79.29,1352.87,442.78,1785.72,839.51,2017.94,0,0-496.49-52.87-882.09-489C441.51,2213.78,640.29,528.22,446,41.53Z" style="fill:#bdd0fb"/><path d="M684.44,425.24c53.64,142.47,104.43,285.91,149.91,431q69.35,217.26,125.26,438.27c36.64,147.4,70.51,295.45,98,444.73,28.2,149.15,50,299.34,71.28,450.21,22.15,150.66,43.6,302.57,80.68,452.74,36.85,149.89,92.2,297.78,172.92,431.18,20.16,33.24,41,66.25,63.59,97.69,22,31.88,45.43,62.79,69.4,93.26a1657.07,1657.07,0,0,0,157,171.85c113.1,106.7,242.36,196.09,379.68,266.67a29.42,29.42,0,0,0,27.67-51.93l-.1-.05c-32.91-18.11-65.58-36.58-97.31-56.44-16-9.68-31.59-20-47.34-30.11-15.35-10.66-31.13-20.72-46.13-31.84a1552.76,1552.76,0,0,1-172.23-142.79c-108-102.74-201.29-222.14-278.63-349.45a1481,1481,0,0,1-99.06-200c-27.87-69.14-50.47-140.53-69-213.27-37.12-145.55-59.6-295.73-82.83-446.22-23.43-150.5-48-301.58-78.77-451.4q-22.76-112.42-49.54-223.95c-8.71-37.21-18.14-74.25-27.5-111.3q-14.58-55.44-29.85-110.68-61.73-220.79-136.93-437.26c-50.85-144-105.51-286.55-165.56-426.78a7.9,7.9,0,0,0-14.65,5.88Z" style="fill:#fff;mix-blend-mode:soft-light"/><path d="M989.37,4252.42c-17.38,51.45-81.66,68.44-122.65,32.82-226.2-196.54-815.49-810.07-781.42-1844C114.07,1568.2,46.7,1092.05,1.14,878c-9.64-45.26,44.11-76.51,78.74-45.82C462,1170.81,1619,2388,989.37,4252.42Z" style="fill:#91b3fa"/><path d="M915.86,4254.45a21.86,21.86,0,0,1-3.58,2,21.22,21.22,0,0,1-27.95-10.86C879,4233.45,349.23,3016.76,334.39,1801a21.21,21.21,0,0,1,42.41-.51c14.73,1206.91,541,2416,546.34,2428A21.19,21.19,0,0,1,915.86,4254.45Z" style="fill:#fff;mix-blend-mode:soft-light"/><path d="M5075.37,1813.28l-53.62,2269.09-8.33,350.93c0,45.86-37.6,83-83.47,83H418.26c-45.86,0-83.47-37.13-83.47-83l-5.1-351.13L297.25,1840.89c0-45.87,54.05-135.32,153-128.57l4409.34-114.1a210.37,210.37,0,0,1,215.76,215.06Z" style="fill:#064586"/><path d="M4903.1,4362.77c0,42.78-35.76,77.79-79.47,77.79H525.75c-43.72,0-79.48-35-79.48-77.79L410.51,1943.19c0-42.78,51.45-126.3,145.74-120L4756.61,1716.7a202.74,202.74,0,0,1,146.72,57.21,194,194,0,0,1,58.8,143.46Z" style="fill:#91b3fa;opacity:0.52"/><path d="M4066.92,2094.5c-1.1,39.85-22.27,72.66-47.35,72.8l-1490.76,8.88c-28.23.16-51-34.76-50.81-77.16h0c.19-42.46,23.32-77.63,51.61-77.63H4023.45c25.12,0,44.56,33.2,43.47,73.11Z" style="fill:#7d97f4"/><path d="M4050.84,3816.18c-1.08,39.86-22,71.29-46.68,71.44l-1469.92,8.19c-27.83.16-50.29-32.37-50.1-74.77h0c.19-42.45,23-75.23,50.89-75.23H4008c24.77,0,43.94,30.47,42.86,70.37Z" style="fill:#7d97f4"/><path d="M4051,3540.46c-1.08,39.86-22,71-46.87,71.17l-1475.81,8.06c-27.94.16-50.49-31.89-50.3-74.3h0c.19-42.45,23.09-74.75,51.09-74.75H4007.94c24.88,0,44.12,29.92,43,69.82Z" style="fill:#7d97f4"/><path d="M4066.77,2400.22c-1.08,33.31-37.91,60.58-82.31,61l-1422,11.87c-46.93.39-84.77-27.08-84.44-61.39l0-3.86c.33-34.35,38.76-62.45,85.78-62.73l1424.54-8.5c44.49-.27,79.61,26.57,78.53,59.91Z" style="fill:#7d97f4"/><path d="M4061.4,2699.5c-1.28,33-38.18,60-82.47,60.36l-1418.16,10.71c-46.79.36-84.35-26.9-83.81-60.91l.06-3.82c.54-34.05,39-61.87,85.92-62.11l1420.65-7.39c44.37-.23,79.24,26.4,77.95,59.45Z" style="fill:#7d97f4"/><path d="M4821.05,4455.15H4337.62a6.12,6.12,0,1,1,0-12.23h483.43c59.48,0,109.72-55.28,109.72-120.7V2834.68a6.12,6.12,0,1,1,12.23,0V4322.22C4943,4394.27,4887.15,4455.15,4821.05,4455.15Z" style="fill:#bdd0fb"/><path d="M417.93,2834.68a6.12,6.12,0,0,1-6.12-6.12V1968.61c0-88.44,66-155.13,153.59-155.13H949.93a6.12,6.12,0,0,1,0,12.23H565.4c-81.9,0-141.36,60.1-141.36,142.9v860A6.11,6.11,0,0,1,417.93,2834.68Z" style="fill:#bdd0fb"/><path d="M4683.9,2750.86l-321.77,2.87c-59.15.53-107.85-48.21-108-108.31l-.79-327.81c-.15-60.1,48.31-108.78,107.47-108.17l321.78,3.26c57.59.59,104.66,49.32,104.8,108.3l.79,321.7C4788.32,2701.67,4741.49,2750.35,4683.9,2750.86Z" style="fill:url(#linear-gradient-6)"/><path d="M4661.38,2720l-276.4,2.16c-54.64.43-99.36-44.42-99.49-100l-.69-281.28c-.13-55.55,44.37-100.35,99-99.85l276.41,2.5c53.38.48,96.78,45.32,96.91,100l.67,276.63C4757.94,2674.78,4714.76,2719.57,4661.38,2720Zm-277.54-465c-47-.41-85.33,38.17-85.21,86l.68,281.14c.12,47.81,38.6,86.43,85.64,86.09l276.4-2c46-.34,83.18-38.91,83.07-86l-.67-276.76c-.12-47.08-37.51-85.69-83.5-86.09Z" style="fill:url(#linear-gradient-7)"/><path d="M4291.8,2375.79l458.73,2Z" style="fill:#f4f7fa"/><polygon points="4750.54 2384.65 4291.82 2382.78 4291.78 2368.8 4750.51 2370.89 4750.54 2384.65" style="fill:url(#linear-gradient-8)"/><path d="M4292.05,2481.54l458.73.28Z" style="fill:#f4f7fa"/><polygon points="4750.79 2488.71 4292.07 2488.54 4292.04 2474.55 4750.76 2474.94 4750.79 2488.71" style="fill:url(#linear-gradient-9)"/><path d="M4292.31,2587.29l458.72-1.41Z" style="fill:#f4f7fa"/><polygon points="4751.05 2592.76 4292.33 2594.29 4292.3 2580.3 4751.01 2579 4751.05 2592.76" style="fill:url(#linear-gradient-10)"/><path d="M4587.65,2663.46l-128.16.75c-32.72.19-59.61-26.93-59.69-60.25l-.6-244.7c-.08-33.33,26.68-60.41,59.4-60.18l128.17.9c32.35.23,58.82,27.45,58.9,60.49l.59,242.58C4646.35,2636.09,4620,2663.27,4587.65,2663.46Z" style="fill:url(#linear-gradient-11)"/><path d="M4587.67,2670.38l-128.17.78c-36.57.22-66.47-29.92-66.56-67.18l-.6-244.76c-.09-37.26,29.66-67.36,66.24-67.09l128.17.93c36.16.26,65.58,30.52,65.67,67.44L4653,2603C4653.1,2640,4623.83,2670.16,4587.67,2670.38ZM4458.61,2306c-29-.19-52.62,23.7-52.55,53.26l.6,244.64c.07,29.56,23.78,53.48,52.81,53.32l128.17-.71c28.7-.16,51.95-24.15,51.88-53.47l-.59-242.64c-.07-29.32-23.44-53.33-52.14-53.53Z" style="fill:url(#linear-gradient-12)"/><rect x="611.49" y="2083.85" width="1689.72" height="1823.7" rx="12" style="fill:#fff"/><g style="clip-path:url(#clip-path)"><path d="M2449.47,3836.22c-50.56-294.47-185.53-563.36-185.53-563.36l-176.71,612.73s3,6.9,8.11,22.27l294.25-.63C2427.2,3907.15,2455.84,3873.29,2449.47,3836.22Z" style="fill:url(#linear-gradient-13)"/><path d="M919.88,3907.86c19.37-69.18,34.25-113.72,34.25-113.72L665.32,3272.86S599.71,3351,529.44,3800.69c-8.77,56.07,33,107.17,89.78,107.17Z" style="fill:url(#linear-gradient-14)"/><path d="M1914.58,3907.86l-78.31-821c-349.81-129.28-790.88,15.41-790.88,15.41l-36.31,805.55Z" style="fill:url(#linear-gradient-15)"/><path d="M1274.56,2828,1268,3044.6a49.15,49.15,0,0,0,32.86,47.86c55.39,19.54,170.06,49.25,278.74,10.34a49,49,0,0,0,31.73-53.34L1578.75,2828Z" style="fill:url(#linear-gradient-16)"/><path d="M1163.79,2432.51s38,387.84,121.68,486.7c0,0,251,22.82,342.21-30.42,0,0,64.64-193.92,57-452.47,0,0,12.46-235.29-247.15-254.76C1133.37,2158.75,1163.79,2432.51,1163.79,2432.51Z" style="fill:url(#linear-gradient-17)"/><path d="M1658.1,2554.19s22.81-68.44,60.83-68.44-7.6,182.51-60.83,182.51Z" style="fill:url(#linear-gradient-18)"/><path d="M1198.4,2572.16s-31.84-64.74-69.51-59.61,32.14,179.82,84.89,172.64Z" style="fill:url(#linear-gradient-19)"/><path d="M1168.72,2480.93s29.85,373.05,131.75,503.18a50.58,50.58,0,0,0,37.13,19.65c52,2.77,185,7.72,259.93-8.83,18.66-4.11,34-18.68,40.16-38.62,10.92-35.46,20.67-63.68,21.21-76.16,2.54-57.84,15.76-218.2,32.77-436.82q-7.79-12.33-15.56-24.65c-4.71,50.56-35.68,372.47-84.72,379.93-10.55,1.61-22-.7-22-.7-29.76-6-38.87-29.45-59.56-44.69-36.12-26.59-98.18-21.29-132.83,6.54-14.39,11.56-23.48,26.54-48.64,37.25-16.07,6.84-31.16,8.72-36,8.52-35.85-1.51-71.5-142.55-91.51-334.54Z" style="fill:url(#linear-gradient-20)"/><path d="M1582.05,2335.65s-193.75,168.12-404.86,167.46c0,0-119.86-270.11,115.88-315s243.35,12.83,243.35,12.83,275.67-57.12,153,273Z" style="fill:url(#linear-gradient-21)"/><path d="M919.12,3907.86h207.56l99.63-848.8c-272.79,24.81-561,213.8-561,213.8l214.59,520.66A1029.74,1029.74,0,0,1,919.12,3907.86Z" style="fill:url(#linear-gradient-22)"/><path d="M2102.12,3907.86c11.71-48.68,25.66-93.58,41.83-139.24l120-495.76c-239-186.73-612.91-230.39-612.91-230.39l139.73,865.39Z" style="fill:url(#linear-gradient-23)"/></g><path d="M3757.06,2232.54s-298.51,382.19,42.07,770.91l128-11.93S3692.78,2615.15,3783,2303.9a30.22,30.22,0,0,1,31.13-21.91l130.72,9.55a68.93,68.93,0,0,0,48.2-15l79.15-63.61Z" style="fill:url(#linear-gradient-24)"/><path d="M4678.44,636.83A201,201,0,0,0,4564,468.39L3710.91,63.24a201.2,201.2,0,0,0-172.66,0L2685.19,468.39a201,201,0,0,0-114.48,168.44c-80,1236.86,713.05,1687.53,973,1801.37a201.54,201.54,0,0,0,161.7,0C3965.4,2324.36,4758.46,1873.69,4678.44,636.83Z" style="fill:url(#linear-gradient-25)"/><path d="M3366.54,231a9.17,9.17,0,0,1-3.94-17.46l201.56-95.72a9.17,9.17,0,1,1,7.87,16.56L3370.47,230.1A9,9,0,0,1,3366.54,231Z" style="fill:#fff;opacity:0.77"/><path d="M2636,898.59a9.16,9.16,0,0,1-9.16-8.86c-2.7-80.33-1.29-164.1,4.21-249A140.61,140.61,0,0,1,2711.1,523L3285,250.41a9.17,9.17,0,1,1,7.87,16.56L2719,539.52a122.28,122.28,0,0,0-69.68,102.4c-5.45,84.3-6.86,167.46-4.18,247.19a9.17,9.17,0,0,1-8.86,9.47Z" style="fill:#fff;opacity:0.77"/><path d="M4472.16,685.11a50.25,50.25,0,0,0-28.6-42.82L3646.1,263.54a50.14,50.14,0,0,0-43,0L2805.6,642.29a50.23,50.23,0,0,0-28.6,42.82c-23.58,461.38,83,846.35,317,1144.73,178.4,227.48,387.08,349.39,509.37,406.26a50.25,50.25,0,0,0,42.45,0c122.29-56.87,331-178.78,509.38-406.26C4389.17,1531.46,4495.74,1146.49,4472.16,685.11Z" style="fill:url(#linear-gradient-26)"/><path d="M3388.79,1180.82h-79.48V864.09c0-124.4,93.13-229.53,216.62-244.54l162.51-19.74a246.32,246.32,0,0,1,276,244.53v276.51H3885V844.34A166.85,166.85,0,0,0,3698,678.7l-162.5,19.75a167,167,0,0,0-146.73,165.64Z" style="fill:url(#linear-gradient-27)"/><path d="M3285.82,1109.71l696.7-38.6a49.38,49.38,0,0,1,52.11,49.3v551.94a49.37,49.37,0,0,1-49.37,49.37h-680a49.37,49.37,0,0,1-49.35-47.76l-16.74-513.34A49.38,49.38,0,0,1,3285.82,1109.71Z" style="fill:url(#linear-gradient-28)"/><path d="M3750.48,1563.61l-42.16-121.24a40.59,40.59,0,0,1,9.22-41.85,114.43,114.43,0,0,0,33-86c-2.69-59.13-51-107.08-110.16-109.35a114.79,114.79,0,0,0-76.8,203.88c13.46,10.92,19,28.85,13.3,45.22l-38,109.31a40.91,40.91,0,0,0,38.64,54.35h134.38A40.91,40.91,0,0,0,3750.48,1563.61Z" style="fill:url(#linear-gradient-29)"/><path d="M3920.56,4103.75s241.86,527.14,368.75,745.47c0,0,25.2,137.39,0,180.59l-21.48,9.55,100.24-3s8.91-184.79,2-195.12-20.86-9.64-20.86-9.64-43-340.53-167.46-413.21l-120.64-415.51Z" style="fill:url(#linear-gradient-30)"/><path d="M4225,5065.24c-.15,2.41,78.27,1.31,120.88.53a33.89,33.89,0,0,0,32.49-26.71l32.17-169a30.38,30.38,0,0,0-23.08-35.3l-18-4.11s-25.61,35.14-17.55,68.23,15.24,118.79-5.14,128.77-79,11.74-79,11.74S4226.36,5043.47,4225,5065.24Z" style="fill:url(#linear-gradient-31)"/><path d="M3691.32,5068.3c-7.94,4.52-4.66,16.63,4.46,16.54,71.3-.72,231-3,245.24-8.87,18.33-7.63-6.68-73.48-33-95.77l-145.31,47.42Z" style="fill:url(#linear-gradient-32)"/><path d="M3646.21,4070.13s156.3,756.1,200.51,903.59l-104.6,65.64s52.42-8.92,91.29-11.74S3908,4980.2,3908,4980.2l-12.53-20s-39.2-752-29.66-837.37Z" style="fill:url(#linear-gradient-33)"/><path d="M3258.23,2306.53s-21.56,393.31,336.53,594.3l-86.21,196.62s-324.2-196.09-312.21-730.92a62.12,62.12,0,0,0-15.22-41.88l-68.9-79.94a123.73,123.73,0,0,1-26.31-110.78l9.07-36.25a18.8,18.8,0,0,1,27.68-11.69l7.21,4.18a126.48,126.48,0,0,1,51.94,57.73l34.6,54.6c12.64,28.25,15.59,40.11,46.42,37.44l57.34.65Z" style="fill:url(#linear-gradient-34)"/><path d="M3582.3,2871.35c59.91,16.62,262.87,70,389.57,67.83l-77.79,439,6.19,71.6-253.64-1.14s-71.4-165.82-127.74-248.49c-16.27-23.88-4.16-52.36,5.06-79.74l-12.67-8.44a34.5,34.5,0,0,1-13.67-39.43l61.77-189A18.87,18.87,0,0,1,3582.3,2871.35Z" style="fill:url(#linear-gradient-35)"/><path d="M3626.3,3411.17l5,43.38s-71.67,214.66,35.84,716c0,0,232.86,66,424.25-91.89,0,0-54-473.21-68.73-495.25-73.45-109.79-122.38-133.66-122.38-133.66l-2.21-47.39S3693.36,3439.4,3626.3,3411.17Z" style="fill:url(#linear-gradient-36)"/><path d="M3725.59,2906.73c-.89-1.17,52.95-162.55,52.95-162.55l77.13,7,30.13,183.08S3764.93,2958.65,3725.59,2906.73Z" style="fill:url(#linear-gradient-37)"/><path d="M3837.21,2489.67c-5.15,3.2-164.81,69.19-130.51,234.95a31.15,31.15,0,0,0,17.7,22.17c23.43,10.45,73.87,28.34,134.2,22.21,83.64-8.5,138.45-154.45,136.12-196.93S3888.17,2457.93,3837.21,2489.67Z" style="fill:url(#linear-gradient-38)"/><path d="M3824.75,2641.83C3800,2580,3777,2525.7,3803,2484.37c38.19-60.79,189.59-65.36,268.2,17.5,82.07,86.5,4.06,202.06,88.49,295.84,66,73.27,142,34.34,234.28,90,153.06,92.35,228.14,371.07,137.4,524-148.33,250-742.86,169.08-835.05-39.23C3614.51,3187.73,3941,2932.2,3824.75,2641.83Z" style="fill:url(#linear-gradient-39)"/><path d="M4030.64,2991.52c-.47-1.16-.93-2.33-1.37-3.51-17.28-46-14.34-101.69,9-170.24,36.31-106.76,35.27-141.32,9.8-203.45-.75-1.81-1.51-3.63-2.29-5.49l2.52-1.06q1.11,2.63,2.16,5.2c25.49,62.16,26.76,98.76-9.61,205.68-23.1,67.92-26,123-9,168.4,18.4,49,68.77,87.19,138.19,104.67,30.28,7.62,61.88,11.42,92.44,15.1,28.64,3.45,58.25,7,86.81,13.72,20.81,4.88,51.08,13.7,73.68,33.89s33.05,49.13,26.88,74l-2.65-.66c5.93-23.9-4.3-51.88-26.05-71.31-22.14-19.76-52-28.45-72.49-33.26-28.4-6.67-58-10.22-86.51-13.66-30.64-3.7-62.33-7.51-92.77-15.17C4100.71,3077.09,4050.41,3039.72,4030.64,2991.52Z" style="fill:#fff;opacity:0.39"/><path d="M3972.9,3032.21a132.18,132.18,0,0,1-5-14.42c-8.69-31-4.77-72.84,23.61-96.56l1.75,2.1c-27.43,22.93-31.19,63.6-22.73,93.72,10.94,39,41.64,75.37,86.47,102.56,29.54,17.93,62.35,30.89,94.08,43.42,10.51,4.15,21.38,8.44,32,12.86a929,929,0,0,1,134.75,69.58c28.34,17.72,56.13,38.23,68.42,68.21.42,1,.81,2,1.19,3,6.7,18.25,4.58,41-5.38,58.05-7.68,13.12-19.25,21.53-32.59,23.68l-.43-2.7c12.51-2,23.4-10,30.66-22.36,9.57-16.34,11.6-38.22,5.17-55.74-11.39-30.94-39.62-51.82-68.49-69.86A925.09,925.09,0,0,0,4182,3178.41c-10.57-4.4-21.43-8.69-31.92-12.84-31.84-12.57-64.76-25.57-94.5-43.63C4015.75,3097.76,3986.89,3066.31,3972.9,3032.21Z" style="fill:#fff;opacity:0.39"/><path d="M3947,3077.72a81.79,81.79,0,0,1-6.2-37.75l2.73.21c-3.82,48.58,42,86.11,61.85,100,22.28,15.56,47,28.61,70.91,41.22,39.52,20.86,80.38,42.42,110.93,75.83,15.64,17.08,25.62,34.56,29.68,51.93,5,21.41.69,43-11.56,57.73l-2.1-1.74c11.7-14.09,15.81-34.79,11-55.38-3.95-16.86-13.72-34-29-50.7-30.23-33-70.88-54.5-110.2-75.25-24-12.66-48.78-25.75-71.19-41.4C3985.72,3129.77,3959.11,3107.27,3947,3077.72Z" style="fill:#fff;opacity:0.39"/></g></g></g></svg>