<svg xmlns="http://www.w3.org/2000/svg" viewBox="0 0 371.7 413.05"><g id="Layer_2" data-name="Layer 2"><g id="Layer_1-2" data-name="Layer 1"><g id="Layer_2-2" data-name="Layer 2"><g id="Layer_1-2-2" data-name="Layer 1-2"><path d="M55.05,220.48H68.82V375.79c0,15.48,8.07,23.5,23.65,23.5H307.13c15,0,23.27-8.2,23.27-23V96.4h-4.2c-9.9,0-19.79.06-29.68,0-12.31-.1-21.09-8.9-21.17-21.22-.08-11.14,0-22.29,0-33.83h-5.47c-58.79,0-117.58.12-176.37-.1-11.66,0-20,4-24.19,15.53L56.55,53.42C59,39.52,73,28.13,87.92,27.63c5.3-.18,10.61-.07,15.91-.07q87.54,0,175.08-.08a13.65,13.65,0,0,1,10.61,4.42q25.25,25.56,50.79,50.8a12.34,12.34,0,0,1,3.92,9.51q-.12,142.17-.07,284.34c0,21.84-14.6,36.49-36.34,36.5H91.44c-21.77,0-36.38-14.66-36.38-36.46V220.48Zm234.09-169c0,8.71-.15,16.69.07,24.66.1,3.94,3,6.32,7.21,6.42,4.72.13,9.46,0,14.19,0h9.6Z" style="fill:#fff"/><path d="M275.33,241.07H288.9v13.36H110.39V241.07h13.5v-4.41c0-9.75-.06-19.49,0-29.24,0-5.11,2.62-7.68,7.7-7.74,8.46-.08,16.92-.06,25.37,0,5.64,0,8.16,2.53,8.19,8.13.06,10.87,0,21.74,0,32.89H179V181c0-6.45,2.34-8.76,8.83-8.78H211.9c5.89,0,8.36,2.48,8.37,8.39v60.1H234V154.1c0-7.29,2.15-9.4,9.51-9.41h23.22c6.15,0,8.56,2.43,8.56,8.63v82.57Zm-27.24-82.52v82.06h13.26V158.55ZM193,186.09v54.52h13.25V186.09Zm-55,27.53v27h13.24v-27Z" style="fill:#fff"/><path d="M363.06,373.82l-10.19-9.07c4.44-5.37,5.13-11.44,5.12-17.9q-.11-155.28-.06-310.55c0-11.76-6.34-20.09-16.92-22.13a34.44,34.44,0,0,0-6.42-.36q-106.68,0-213.35-.06c-6.44,0-12.57.53-17.82,5.19L94.34,8.74c5.91-5.47,12.82-8,20.52-8.64C116.57,0,118.3,0,120,0H334.23c23.24,0,37.47,14.25,37.47,37.51V348.93C371.74,358.17,369.42,366.4,363.06,373.82Z" style="fill:#fff"/><path d="M69,68.88c37.69-.08,68.53,30.81,68.67,68.76.13,37.71-30.89,68.89-68.57,68.9-38,0-69-30.7-69.09-68.36a68.87,68.87,0,0,1,68.44-69.3Zm54.89,68.86A55.09,55.09,0,0,0,68.8,82.64h-.25c-30.19,0-54.79,24.81-54.79,55.22,0,30,24.74,54.82,54.7,54.91a55.12,55.12,0,0,0,55.41-54.85v-.18Z" style="fill:#fff"/><path d="M110.12,323.62V290.93c0-6.23,2.39-8.65,8.53-8.66H184c6.22,0,8.66,2.4,8.66,8.54V356.2c0,6.2-2.41,8.65-8.54,8.66h-65.4c-6.21,0-8.63-2.4-8.65-8.54C110.09,345.42,110.12,334.52,110.12,323.62Zm68.65-27.28H124.23v54.53h54.54Z" style="fill:#fff"/><path d="M158.5,109.86V96.63h82.06v13.23Z" style="fill:#fff"/><path d="M302.61,295.83h-82V282.54h82Z" style="fill:#fff"/><path d="M220.47,323.28V310h82.06v13.27Z" style="fill:#fff"/><path d="M220.47,350.81V337.54h82.06v13.27Z" style="fill:#fff"/><path d="M186.05,82.35V69.07h54.53V82.35Z" style="fill:#fff"/><path d="M158.38,82.37V69.21h13.39V82.37Z" style="fill:#fff"/><path d="M75.72,172.29v6.45H62.07v-6.38c-7-.61-13.11-3.1-16.84-9-2.12-3.35-3.14-7.39-4.89-11.7H54.78c1,5.67,5.07,7.1,10.41,6.74,3.42-.24,6.88.06,10.32-.09,4.12-.17,6.93-2.94,7-6.66.11-3.9-2.77-6.87-7.1-7-4.15-.15-8.31,0-12.47-.05-11.75-.08-20.83-8.06-21.64-19-.84-11.28,6.88-20.44,18.76-22.24.42-.07.85-.12,1.66-.23L62,96.68h13.5V103c7,.69,13.13,3.08,16.84,9,2.1,3.36,3.13,7.39,4.87,11.7H82.85c-1.06-5.66-5.07-7.1-10.41-6.73-3.42.24-6.88-.06-10.32.08-4.14.17-6.93,2.91-7,6.65-.11,3.9,2.78,6.88,7.1,7,4.15.15,8.31,0,12.47,0,11.77.08,20.81,8,21.64,19S89.56,170.1,78,172C77.4,172.11,76.83,172.16,75.72,172.29Z" style="fill:#fff"/></g></g></g></g></svg>