<svg xmlns="http://www.w3.org/2000/svg" viewBox="0 0 445.14 444.93"><g id="Layer_2" data-name="Layer 2"><g id="Layer_1-2" data-name="Layer 1"><g id="Layer_2-2" data-name="Layer 2"><g id="Layer_1-2-2" data-name="Layer 1-2"><path d="M350,175.11c14.16-10.24,30.33-14.38,48.11-10.65a57.38,57.38,0,0,1,33.67,20.68,58.92,58.92,0,0,1-.68,75.53c-16.75,20-49.45,30.57-80.8,9.62l-78.51,82a61.22,61.22,0,0,1,10.12,35.06c-.65,29.88-25,55.33-55,57.42C196.24,447,168.33,425,164.14,395c-.88-6.32.08-12.88-.15-19.32-.05-1.6-1-4-2.22-4.6-17.43-8.93-35-17.62-52.94-26.58-12.14,16.52-28.29,25.88-49,26.22-14.28.24-27-4.47-38.06-13.46A59.51,59.51,0,0,1,7,283.5c12-22.25,42.1-41,78.22-25.73,6.32-9.75,12.16-20,19.23-29.25,5.27-6.9,5.38-12.14.46-19.34-7.82-11.44-14.4-23.73-21.72-36-19,7.41-37.49,6.61-55-4.14A57.72,57.72,0,0,1,2.92,136.92C-6.19,109.05,6.6,79,32.87,65.56,56.93,53.28,93.19,58,112.45,91.46l32-11.66c5.22-1.9,10.38-4,15.69-5.59,3.49-1,4.43-2.61,3.89-6.25A59,59,0,0,1,208.34,1.75c24.18-5.9,48.48,3.35,63.07,24,13.75,19.46,13.95,45.9.52,66.26l-2,3Zm-23.69,46.78c-14.42-2-28.32-3.86-42.19-5.91-3.13-.46-4.55.3-5.63,3.48-5,14.65-14.36,25.88-28.14,32.91-6.22,3.17-13.12,5-20,7.6v66.85c12.1,1.66,22.47,6.72,31.65,14.36,26.13-27.33,51.91-54.28,77.77-81.34-8.91-11.26-13.13-23.75-13.46-37.95ZM103.84,118.72a44.49,44.49,0,1,0-44.58,44.4h0A44.62,44.62,0,0,0,103.84,118.72ZM267,200.5a44.49,44.49,0,1,0-44.78,44.2A44.49,44.49,0,0,0,267,200.5ZM385.86,178a44.49,44.49,0,1,0,44.34,44.64h0A44.61,44.61,0,0,0,385.86,178Zm-371,133.6A44.49,44.49,0,1,0,59.24,267h0A44.64,44.64,0,0,0,14.86,311.6Zm163.19,73.87a44.49,44.49,0,1,0,44.64-44.34h0A44.62,44.62,0,0,0,178.05,385.47ZM222.63,14.84A44.48,44.48,0,1,0,267,59.43v0A44.61,44.61,0,0,0,222.63,14.84Zm-49.71,152.3c16.56-21.21,37.63-31,63.73-24.27,29.31,7.55,43.42,28.47,45.69,57.95,14,2,27.76,3.92,41.52,5.72,1.61.21,4.37,0,4.85-.94,3.34-6.51,6.23-13.25,8.88-19.07L258,106.89c-18.86,13.31-39.49,15.42-61.26,6l-32.3,49.9Zm-16.84,8.56c-8.77,13.52-17.34,26.9-26.13,40.13-1.71,2.57-1.66,4.36-.1,7q31.71,53,63.22,106.17c.76,1.28,1.65,2.48,2.22,3.33l19.53-6.06V259l-3-.53a59.39,59.39,0,0,1-47.63-69.17l0-.2c1.89-9.65,1.89-9.65-8.14-13.4ZM97.83,265.61a6.81,6.81,0,0,0,.71,1.3c17.84,17,24.17,37.41,17.5,61.41-.85,3.05,1,3.67,2.95,4.66q23.79,11.86,47.53,23.78a30.94,30.94,0,0,0,2.89,1.14l13.39-17.14q-31.53-53.07-63.94-107.58Zm85.94-160c-4.63-6.21-8.76-11.92-13.15-17.43-.62-.77-2.71-1.07-3.79-.68-15.53,5.54-31,11.29-46.5,16.83-2.43.87-2.81,2-2.62,4.42a127.6,127.6,0,0,1,.54,16.12c-.21,4.65-3.22,10.32-1.43,13.6,1.88,3.45,8,4.62,12.26,6.75,7.25,3.61,14.52,7.2,22,10.9ZM119.38,205c8-12.4,15.68-24.21,23.51-36.3l-33.77-16.89c-4.44,4.76-8.61,9.25-13,14Z" style="fill:#fff"/></g></g></g></g></svg>