<svg xmlns="http://www.w3.org/2000/svg" viewBox="0 0 427.29 427.84"><g id="Layer_2" data-name="Layer 2"><g id="Layer_1-2" data-name="Layer 1"><path d="M121.27,165.24l-3.68-1.83c-1.72,8.14-3,9.15-11.19,9.15H57.25c-6,0-7.33-1-9.61-6.89H.06V152.05H47.69V69.2H0V55.53H47.7c1.17-6.24,5.28-7.29,10.6-7.23,16.09.2,32.19.07,48.28.07,8.22,0,9.77,1.35,10.83,9.89l45.1-20c-1.25-5.09-2.84-9.88-3.46-14.79A11.74,11.74,0,0,1,161,15.74c2-2.68,5.31-2.19,8.28-.74,4.52,2.2,9.08,4.29,14,6.6,3.22-5.48,6.38-10.92,9.59-16.33,4.1-6.9,9.4-7,13.93-.34,2.74,4,5.43,8.12,8.15,12.17a5.61,5.61,0,0,0,1,.76c4.39-2.92,8.93-5.87,13.39-8.93,3-2,6-2.89,9.14-.53,2.89,2.19,3.17,5.12,2.3,8.51-3.35,13-6.56,26.12-9.95,39.73,2.37-.28,4.33-.39,6.24-.77,9.06-1.81,16.29,1.25,21.32,8.71,5.17,7.67,4.75,15.68-.33,23.42-.31.48-.66.94-1.14,1.62,6.63,9.11,7,18.41-.05,27.75,4.12,5.45,6.08,11.34,4.66,18.2-.24,1.11,1.1,2.77,2,3.89,33.31,39.13,21.7,98.39-24.25,121.25-34.17,17-90.55,12.32-114-35.15C115.68,206.24,114.58,186.19,121.27,165.24ZM165.93,51.88c-15.81,7-31.31,13.8-46.7,20.82-1.1.5-2.09,2.58-2.1,3.94-.13,22.56,0,45.12-.16,67.68a4.61,4.61,0,0,0,3.11,4.89c5,2.27,10.07,4.37,14.63,7.3,12.06,7.75,25,10,39.26,9.35,17.5-.83,35.06-.17,52.59-.22,4.72,0,7.73-2.84,7.73-6.89s-3-6.74-7.74-6.88c-1.94-.05-3.88,0-5.81,0V138.06c6.07,0,11.92,0,17.78,0a19,19,0,0,0,4.28-.24,6.84,6.84,0,0,0,5.25-7.4c-.41-3.54-3.14-6-7.15-6.1-6.7-.12-13.4,0-20,0V110.47c6.35,0,12.38,0,18.41,0,5.67,0,9-2.69,8.81-7.1s-3.26-6.66-8.79-6.69c-6.14,0-12.27,0-18.47,0V82.86c6.87,0,13.47.09,20.06,0,4.82-.08,7.73-3.24,7.31-7.61-.39-4.1-3.87-6.61-8.36-5.91q-31.71,4.91-63.4,9.86c-7.88,1.22-15.76,2.36-23.87,3.57-.7-4.78-1.34-9.09-2-13.48l19-3.09C168.29,61.22,167.14,56.68,165.93,51.88Zm81,99.47c4.76,15.89-6.92,29.49-23.05,28.2-6.86-.55-13.79-.09-20.69-.09H192.85c1,5,3.77,6.7,8,7A20.4,20.4,0,0,1,220,202.81c2,8.83-2.17,17.88-10.68,22.38a4.31,4.31,0,0,0-2.67,4.65c.15,3.82,0,7.64,0,11.37h-13.8c0-3.79-.14-7.24,0-10.68.15-2.68-.52-4.23-3.17-5.66-6.8-3.64-10.22-9.65-10.62-17.63h13.43c2,5.27,5,7.57,8.78,6.5,3.42-1,5.34-3.34,5.28-7s-2.83-6.22-7.12-6.61c-11-1-18.17-7.21-20.17-17.38-.21-1.06-.35-2.13-.55-3.32-8.09,0-15.87-.38-23.59.1-8.35.53-14-5.85-21.39-7.68-9.61,28.22,3.86,61,30.8,75.66,12.29,6.69,25.49,8,39.2,7.88C246,255,276.32,217,267,175.91a61.73,61.73,0,0,0-14-27.5Zm-184.81-89v96.05H103v-96Zm113.48-29c2.5,10.12,4.76,19.54,7.27,28.89.2.74,2.25,1.54,3.31,1.39q13.62-1.89,27.19-4.21c1-.17,2.54-1.11,2.77-2,2.41-8.93,4.6-17.93,7-27.6-1.79,1.06-2.9,1.67-4,2.35-5.79,3.71-8.72,3.14-12.52-2.48-2.08-3.08-4.14-6.17-6.49-9.68-2.78,4.71-5.25,9-7.87,13.29-2.52,4.08-5.48,5-9.87,3.15C180.41,35.62,178.39,34.63,175.63,33.37Z" style="fill:#294781"/><path d="M393.32,407.24h34v13.49H393.62c-2.71,6.37-3.83,7.1-10.56,7.1h-50c-6.74,0-9-2.31-9-9.08,0-3.85,0-7.7,0-11.89-7.22-.41-14.08-.85-20.95-1.19q-56.17-2.76-112.36-5.48c-14.09-.7-26.39-5.87-36-16.23q-22.86-24.66-45-49.95a27,27,0,0,1,1.64-37.08c10.33-9.77,25.25-9.19,36.53.84s22.74,19.38,34.47,29.32c5.71-8.54,14.1-10,23.49-9.73,11.48.35,23,0,34.48.13a6.92,6.92,0,0,0,6.19-2.77A28.28,28.28,0,0,1,266,304c18.18-1.79,35.57.51,50.85,11.66,2.19,1.59,4.28,3.31,7.14,5.54,0-3.68-.06-6.75,0-9.81.13-5.12,2.63-7.73,7.73-7.75,17.82-.06,35.64,0,53.46,0,4.65,0,7.08,2.51,8,7h34v13.65H393.32ZM247.94,358.77c-16.89,0-33.41.34-49.89-.14-8.06-.24-13.74-5.09-17.28-12.43a19.08,19.08,0,0,0-4.44-6.05c-12.63-10.87-25.46-21.51-38.1-32.37-5.83-5-12.39-5.48-17.35-.8a13.16,13.16,0,0,0-.52,18.32q21.93,24.61,44.19,48.95c7.23,7.87,16.56,11.61,27.2,12.15q58.31,2.93,116.64,5.81c5.09.25,10.21,0,15.62,0,0-12.19-.4-24.54.12-36.85.5-11.88-5.46-20.26-13.74-27.23-11.32-9.52-25-11.37-39.33-10.76-7,.3-12.56,2.93-16.08,9.05-2,3.55-4.82,4.88-8.83,4.84-14.94-.12-29.88-.07-44.82,0-5.19,0-8.23,2.51-8.37,6.68S196,345,201.34,345c13.94,0,27.88,0,41.81,0h4.79Zm131.11-41h-41v96h41Z" style="fill:#294781"/></g></g></svg>