<svg xmlns="http://www.w3.org/2000/svg" viewBox="0 0 449.11 449.29"><g id="Layer_2" data-name="Layer 2"><g id="Layer_1-2" data-name="Layer 1"><path d="M0,298.37c1.74-8.83,3.61-17.64,5.18-26.5q10.76-60.62,21.37-121.24c1.18-6.65,4-8.57,10.83-7.4q14.9,2.57,29.77,5.24c7.19,1.29,8.93,3.91,7.64,11.31-.3,1.72-.52,3.46-.85,5.75,10.28,1.65,20.29,5.3,31.35,1.26V162q0-48.25,0-96.51c0-18.7,11.65-30.28,30.42-30.3h46.79c0-4.77,0-9.12,0-13.46.13-12.57,9-21.54,21.61-21.62q20.61-.12,41.23,0c12.28.09,21.19,9.09,21.36,21.41.07,4.36,0,8.73,0,13.66h4.93c14.33,0,28.66,0,43,0,17.27.05,29.26,12,29.29,29.22q.07,48.69,0,97.38v5c10.79,4,20.8.51,31.43-1.17-.48-2.73-1-5.25-1.36-7.78-.72-4.64,1.19-7.86,5.79-8.75,11.19-2.15,22.4-4.17,33.65-6,5.59-.89,8.15,1.32,9.23,7.36q5.42,30.41,10.72,60.83,7.68,43.59,15.36,87.16c1.19,6.73-.57,9.39-7.43,10.64q-15.73,2.88-31.48,5.64c-5.51,1-7.48-.82-10-8.91-3.74-.47-5.59,1.34-7.71,4.52-5.62,8.47-12.05,16.4-18.09,24.6-1,1.43-2.4,3.06-2.54,4.69-1.56,18.1-13.59,28.46-31.82,27.19l-2.79-.2c-.71,8.76-3.92,16.38-11,21.89s-15,6.88-24,5.29c-.69,9.06-3.92,16.67-11.07,22.16s-14.95,7-23.79,5.16c-.36,2-.62,3.86-1,5.68-2.32,11-9.16,17.95-19.71,21.44l-3.3,1.06h-8.78c-3.73-1.59-7.4-3.34-11.21-4.7-1.72-.62-3.9-1.11-5.54-.6-16,5-31.3-3.2-36.06-19.39a20.07,20.07,0,0,0-1-2.35c-8.68,5.17-17.57,6-26.63,2.1s-14.07-11.32-16.33-20.9c-11.35,6.3-22.38,6.6-32.38-1.28-12.38-9.76-13.8-22.48-7.56-36.42-12.33-4.93-19.18-13.44-19.86-26.61-.08-1.47-1.5-2.94-2.49-4.27-6.06-8.17-12.47-16.1-18.11-24.55-2.11-3.16-4-5-7.66-4.56-2.41,8.08-4.44,9.93-10,9-10.2-1.78-20.45-3.38-30.56-5.58-3.14-.68-5.91-3-8.85-4.63ZM229,237c-8,1.63-15.56,3.07-23.08,4.81a7.53,7.53,0,0,0-4,2.86c-3.72,5.24-7,10.77-10.79,16-8.66,12-20.55,17.25-35.11,14.77-22.76-3.88-28.22-23.51-16.95-38.1,8-10.38,14.87-21.7,21.89-32.81a42.49,42.49,0,0,1,21.48-17.82c7.82-3,15.42-6.54,23.89-10.17-9.86-5.12-19.41-7.37-29.46-5.94q-32.54,4.64-65,9.93c-11.16,1.82-22.2,3.39-33.35.21a65.14,65.14,0,0,0-7.21-1.17C64.74,217,58.21,254,51.63,291.28a19.17,19.17,0,0,0,3.63.89c6.68.28,10.82,3.26,13.33,9.81a57.3,57.3,0,0,0,13.55,20c11.49-9.66,22.37-19.44,33.91-28.35,16.07-12.4,39.53-3.53,43.66,16.39,1,4.83.15,10,.15,15.34,13.76,3.53,21.36,12.76,22.65,27.38,16.9-.9,27.57,6.84,32.12,23.13,1.3-.67,2.32-1.22,3.36-1.71,16.66-7.83,36.14,1.65,39.05,19.81,1,6,4.07,8.73,8.47,11.38,7.11,4.27,15.4,2.72,19.72-3.79s2.7-14.83-4.19-19.61c-5-3.5-10.22-6.79-15.34-10.18-6.45-4.27-13-8.47-19.32-12.88-3.51-2.43-4.2-6.38-2.1-9.62s6-4.06,9.63-2.09c1,.56,2,1.26,2.94,1.9,14.51,9.59,28.95,19.27,43.53,28.74,9.26,6,20.64,1.12,22.11-9.46.87-6.28-2-10.93-7.26-14.37q-22.53-14.81-45-29.77c-4.32-2.88-5.3-6.89-2.83-10.43s6.22-4,10.42-1.28c4.68,3,9.28,6.11,13.91,9.17,14.51,9.59,29,19.27,43.53,28.73,9.62,6.24,21.5.64,22.17-10.32.36-5.95-2.42-10.26-7.35-13.51Q317.19,304.83,284.36,283c-5.72-3.82-11.42-7.47-18.33-8.9a32.39,32.39,0,0,1-7.69-3.11C244.11,263.74,234.55,252.38,229,237ZM378,179.65l-5,.72c-6.2.88-12.57,3.15-18.56,2.39-23-2.91-46-6.64-68.89-10.36-12.82-2.08-25.4-3.58-37.88,1.86-20.74,9.05-41.69,17.62-62.36,26.81a26.25,26.25,0,0,0-10.32,8.37c-8.86,12.51-17.15,25.44-25.57,38.27-3.44,5.23-2.19,9.27,3.49,12.11a20.8,20.8,0,0,0,26.51-6.7c4.47-6.32,8.38-13,13-19.23a13.86,13.86,0,0,1,7.15-4.93c10.2-2.51,20.55-4.42,30.84-6.57,6.8-1.41,9.34.14,11.15,6.88,6.44,24,29.57,38.2,54,33.51,10.42-2,18.78-7.75,27.31-13.38,4.64-3.07,8.75-2.7,11.21.84s1.23,7.71-3.59,11c-9.3,6.26-18.59,12.53-30.7,14.84,1.72,1.32,2.68,2.14,3.72,2.83,16.08,10.66,32.21,21.23,48.24,32,5.16,3.46,10.06,7.32,15.39,11.22A72.44,72.44,0,0,0,382,299.27c1.45-3.52,3.62-5.86,7.63-6.29,2.57-.27,5.09-.94,8-1.51ZM266.76,105.12c0-2.47-.12-4.65,0-6.81.27-4.18,2.8-6.88,7-7q14-.23,28.08,0c4.16.07,6.71,2.79,7,7,.14,2.27,0,4.56,0,6.85,11.94-.36,20.74-9.05,21-20.42.16-6.28.05-12.58,0-18.86,0-11.41-5.25-16.72-16.54-16.72h-132c-15.65,0-31.29,0-46.94,0-9.29,0-15,5.77-15,15.09,0,6.87-.14,13.75,0,20.62a20.7,20.7,0,0,0,21,20.19c0-1.87,0-3.74,0-5.6.12-5.51,2.6-8.13,8-8.18q13.16-.12,26.32,0c5,0,7.55,2.68,7.75,7.57.08,2,0,4,0,6.22Zm-84.27,14.45c0,2.49.11,4.66,0,6.82-.27,4.16-2.82,6.89-7,7q-14,.22-28.06,0c-4.33-.08-6.81-2.91-7-7.38-.1-2.14,0-4.29,0-5.31l-20.75-7v51.43c9-1.39,17.64-2.74,26.29-4.06,10.1-1.54,20.18-3.27,30.32-4.51,14.17-1.73,27.24,2.45,39.66,8.66,5.93,3,11.27,3.88,17.11.1,2.42-1.56,5.33-2.35,8-3.5,10.39-4.47,21.23-6.59,32.49-5.2,10.29,1.27,20.5,3.07,30.75,4.61,8.44,1.27,16.87,2.49,25.35,3.74V113.68l-20.79,6.94c0,1.22.1,3.39,0,5.54-.24,4.41-2.8,7.13-7.2,7.2q-13.81.21-27.62,0c-4.42-.06-7-2.77-7.23-7.16-.11-2.14,0-4.3,0-6.63ZM35.89,299.78c8.14-46.19,16.21-92,24.37-138.21l-20.74-3.69L15.17,296.14ZM389,161.57c8.18,46.36,16.25,92.13,24.38,138.23l20.72-3.66c-8.15-46.23-16.23-92.11-24.37-138.27ZM168.89,353.88c-1-6.22-3.49-10.57-8.48-13.05-5.24-2.61-10.59-2.32-15.21,1.49-10.83,8.91-21.62,17.88-32.24,27a14,14,0,0,0,18,21.4c10.86-8.87,21.69-17.79,32.14-27.14C165.76,361.21,167,357.17,168.89,353.88Zm-22.16-35.79c-.37-7.69-2.83-12-7.86-14.43-5.35-2.61-10.58-2.08-15.19,1.71q-13.55,11.14-26.87,22.54a14,14,0,0,0-1.92,19.65,13.65,13.65,0,0,0,19.58,2c9.33-7.52,18.6-15.14,27.44-23.21C144.57,323.94,145.74,319.87,146.73,318.09Zm97.39,83.49c-.41-7.9-2.91-12.24-8.13-14.76-5.42-2.62-10.57-1.78-15.13,2q-10.68,8.72-21.14,17.72a14.07,14.07,0,0,0-2.16,19.62,13.89,13.89,0,0,0,19.9,2c7.29-5.84,14.59-11.71,21.37-18.1C241.59,407.44,243,403.43,244.12,401.58Zm-59-35c-1.48.64-4.63,1.31-6.9,3.1q-11.5,9.06-22.46,18.81a13.68,13.68,0,0,0-1.4,19c4.62,5.7,12.94,7.18,18.83,2.63,8.06-6.24,15.84-12.87,23.46-19.66,4.28-3.82,5.14-10.1,2.8-15.33C197,369.65,192.55,367.08,185.1,366.62ZM252.68,35c0-4.93.14-9.44,0-13.93-.17-4.16-2.82-6.88-7-6.91-14-.13-28-.11-42,0-3.85,0-6.57,2.22-6.9,6-.41,4.87-.1,9.8-.1,14.84ZM154.59,119h13.65V105.6H154.59Zm126.37.11h13.6V105.63H281ZM233,433.59c6,2.58,11.39,1.71,15.37-2.3,3.72-3.75,5.11-8.18,3.68-13.86Z" transform="translate(0)" style="fill:#294781"/></g></g></svg>